<?xml version="1.0" encoding="UTF-8"?>
<svg xmlns="http://www.w3.org/2000/svg" xmlns:xlink="http://www.w3.org/1999/xlink" width="206px" height="155px" viewBox="0 0 205 155" version="1.1">
<defs>
<filter id="alpha" filterUnits="objectBoundingBox" x="0%" y="0%" width="100%" height="100%">
  <feColorMatrix type="matrix" in="SourceGraphic" values="0 0 0 0 1 0 0 0 0 1 0 0 0 0 1 0 0 0 1 0"/>
</filter>
<mask id="mask0">
  <g filter="url(#alpha)">
<rect x="0" y="0" width="205" height="155" style="fill:rgb(0%,0%,0%);fill-opacity:0.321569;stroke:none;"/>
  </g>
</mask>
<linearGradient id="linear0" gradientUnits="userSpaceOnUse" x1="157.03" y1="260.06" x2="177.51" y2="198.6" gradientTransform="matrix(0.5125,0,0,0.514134,0,0.379902)">
<stop offset="0" style="stop-color:rgb(100%,76.862745%,61.960784%);stop-opacity:1;"/>
<stop offset="1" style="stop-color:rgb(94.509804%,35.294118%,14.117647%);stop-opacity:1;"/>
</linearGradient>
<clipPath id="clip1">
  <rect x="0" y="0" width="205" height="155"/>
</clipPath>
<g id="surface5" clip-path="url(#clip1)">
<path style=" stroke:none;fill-rule:nonzero;fill:url(#linear0);" d="M 73.863281 132.558594 C 84.582031 127.074219 100.59375 119.125 107.300781 115.386719 L 98.589844 111.273438 L 62.589844 125.878906 C 66.230469 128.292969 70.0625 130.398438 73.863281 132.558594 Z M 73.863281 132.558594 "/>
</g>
<mask id="mask1">
  <g filter="url(#alpha)">
<rect x="0" y="0" width="205" height="155" style="fill:rgb(0%,0%,0%);fill-opacity:0.321569;stroke:none;"/>
  </g>
</mask>
<linearGradient id="linear1" gradientUnits="userSpaceOnUse" x1="129.81" y1="261.38" x2="149.33" y2="202.83" gradientTransform="matrix(0.5125,0,0,0.514134,0,0.379902)">
<stop offset="0" style="stop-color:rgb(100%,76.862745%,61.960784%);stop-opacity:1;"/>
<stop offset="1" style="stop-color:rgb(94.509804%,35.294118%,14.117647%);stop-opacity:1;"/>
</linearGradient>
<clipPath id="clip2">
  <rect x="0" y="0" width="205" height="155"/>
</clipPath>
<g id="surface8" clip-path="url(#clip2)">
<path style=" stroke:none;fill-rule:nonzero;fill:url(#linear1);" d="M 62.589844 125.878906 C 72.730469 121.496094 83.0625 118.105469 87.835938 115.449219 L 80.148438 111.796875 L 56.03125 121.597656 C 59.164062 123.773438 59.378906 123.773438 62.589844 125.878906 Z M 62.589844 125.878906 "/>
</g>
<mask id="mask2">
  <g filter="url(#alpha)">
<rect x="0" y="0" width="205" height="155" style="fill:rgb(0%,0%,0%);fill-opacity:0.321569;stroke:none;"/>
  </g>
</mask>
<linearGradient id="linear2" gradientUnits="userSpaceOnUse" x1="238.03" y1="254.99" x2="256.54" y2="199.46" gradientTransform="matrix(0.5125,0,0,0.514134,0,0.379902)">
<stop offset="0" style="stop-color:rgb(100%,76.862745%,61.960784%);stop-opacity:1;"/>
<stop offset="1" style="stop-color:rgb(94.509804%,35.294118%,14.117647%);stop-opacity:1;"/>
</linearGradient>
<clipPath id="clip3">
  <rect x="0" y="0" width="205" height="155"/>
</clipPath>
<g id="surface11" clip-path="url(#clip3)">
<path style=" stroke:none;fill-rule:nonzero;fill:url(#linear2);" d="M 116.277344 135.828125 C 123.964844 131.679688 143.84375 119.480469 151.464844 115.238281 L 130.964844 111.796875 L 100.917969 122.457031 C 108.945312 126.667969 105.164062 128.914062 116.277344 135.828125 Z M 116.277344 135.828125 "/>
</g>
</defs>
<g id="surface1">
<path style=" stroke:none;fill-rule:nonzero;fill:rgb(100%,76.078431%,64.313725%);fill-opacity:1;" d="M 99.570312 149.222656 L 7.460938 94.617188 C 4.53125 92.964844 2.015625 90.25 4.875 88.476562 L 97.3125 35.007812 C 98.703125 34.144531 100.808594 33.578125 102.21875 34.398438 L 198.90625 90.714844 C 201.835938 92.421875 202.367188 97.191406 199.417969 98.902344 L 111.726562 149.140625 C 107.972656 151.324219 103.347656 151.355469 99.570312 149.222656 Z M 99.570312 149.222656 "/>
<use xlink:href="#surface5" mask="url(#mask0)"/>
<use xlink:href="#surface8" mask="url(#mask1)"/>
<path style=" stroke:none;fill-rule:nonzero;fill:rgb(89.803922%,39.215686%,38.039216%);fill-opacity:1;" d="M 103.890625 40.339844 L 104.335938 37.558594 C 104.335938 37.558594 104.367188 33.90625 104.847656 33.957031 C 105.328125 34.007812 105.539062 34.828125 105.5 35.695312 C 105.457031 36.566406 105.5 40.324219 105.5 40.324219 "/>
<path style=" stroke:none;fill-rule:nonzero;fill:rgb(89.803922%,39.215686%,38.039216%);fill-opacity:1;" d="M 104.902344 43.804688 C 104.902344 43.804688 107.441406 42.195312 107.675781 40.339844 C 107.910156 38.480469 105.378906 37.144531 105.378906 37.144531 L 104.6875 39.664062 "/>
<path style=" stroke:none;fill-rule:nonzero;fill:rgb(96.470588%,46.666667%,43.921569%);fill-opacity:1;" d="M 102.535156 42.882812 C 102.535156 42.882812 103.046875 40.359375 103.046875 40.167969 C 103.046875 39.976562 103.746094 37.828125 104.449219 37.78125 C 105.148438 37.738281 106.636719 37.828125 106.824219 38.25 C 107.015625 38.671875 105.800781 39.070312 105.007812 39.078125 C 105.007812 39.078125 106.265625 40.492188 105.800781 42.164062 C 105.4375 43.25 104.714844 44.179688 103.75 44.796875 "/>
<path style=" stroke:none;fill-rule:nonzero;fill:rgb(25.882353%,12.941176%,4.313725%);fill-opacity:1;" d="M 102.5 108.007812 C 102.480469 108.644531 102.738281 109.257812 103.210938 109.683594 C 103.984375 110.292969 106.855469 112.117188 107.167969 112.5625 C 107.480469 113.011719 108.03125 114.277344 107.53125 114.824219 C 107.035156 115.375 105.929688 115.609375 104.457031 115.339844 C 102.429688 114.777344 100.480469 113.953125 98.660156 112.886719 C 97.949219 112.328125 97.460938 105.421875 97.460938 105.421875 C 97.460938 105.421875 100.851562 103.988281 102.171875 104.660156 Z M 102.5 108.007812 "/>
<path style=" stroke:none;fill-rule:nonzero;fill:rgb(25.882353%,12.941176%,4.313725%);fill-opacity:1;" d="M 83.636719 110.601562 C 83.394531 111.191406 83.429688 111.855469 83.726562 112.421875 C 84.238281 113.257812 86.289062 115.96875 86.449219 116.496094 C 86.605469 117.027344 86.667969 118.40625 86.007812 118.742188 C 85.347656 119.082031 84.234375 118.917969 82.972656 118.148438 C 81.257812 116.914062 79.707031 115.464844 78.359375 113.832031 C 77.882812 113.058594 79.816406 106.414062 79.816406 106.414062 C 79.816406 106.414062 83.484375 106.246094 84.496094 107.339844 Z M 83.636719 110.601562 "/>
<path style=" stroke:none;fill-rule:nonzero;fill:rgb(90.196078%,90.196078%,90.196078%);fill-opacity:1;" d="M 95.234375 62.03125 C 95.234375 62.03125 96.128906 64.316406 98.429688 71.535156 C 101.4375 80.964844 103.398438 105.742188 103.398438 105.742188 C 103.398438 105.742188 102.101562 107.027344 97.492188 106.316406 L 90.671875 72.75 C 90.078125 73.777344 84.117188 110.316406 84.117188 110.316406 C 84.117188 110.316406 82.464844 111.75 76.429688 109.40625 C 76.429688 109.40625 78.289062 70.878906 81.90625 62.023438 "/>
<path style=" stroke:none;fill-rule:nonzero;fill:rgb(25.882353%,12.941176%,4.313725%);fill-opacity:1;" d="M 83.609375 64.003906 C 84.671875 63.960938 87.621094 64.707031 89.636719 64.558594 C 91.578125 64.46875 93.503906 64.125 95.355469 63.53125 C 95.433594 63.175781 95.5 62.800781 95.550781 62.390625 C 96.886719 52.035156 96.53125 44.769531 95.550781 43.128906 C 94.570312 41.488281 88.703125 40.1875 86.035156 40.933594 C 83.363281 41.679688 79.34375 44.800781 79.34375 44.800781 C 79.34375 44.800781 80.445312 53.585938 82.421875 59.835938 C 82.972656 61.597656 82.972656 61.597656 83.609375 64.003906 Z M 83.609375 64.003906 "/>
<path style=" stroke:none;fill-rule:nonzero;fill:rgb(25.882353%,12.941176%,4.313725%);fill-opacity:1;" d="M 90.308594 41.933594 C 91.25 42.132812 91.425781 39.515625 91.023438 39.273438 C 90.625 39.03125 86.210938 39.007812 85.53125 39.308594 C 84.039062 39.972656 85.53125 42.1875 85.53125 42.1875 "/>
<path style=" stroke:none;fill-rule:nonzero;fill:rgb(12.54902%,3.529412%,1.568627%);fill-opacity:1;" d="M 84.644531 30.992188 C 85.496094 30.84375 85.46875 29.421875 87.042969 28.769531 C 88.617188 28.117188 90.480469 29.054688 91.179688 29.558594 C 91.875 30.0625 92.378906 29.042969 93.132812 29.820312 C 93.886719 30.59375 93.410156 31.804688 93.847656 32.230469 L 93.910156 32.28125 C 94.300781 32.9375 94.324219 33.75 93.972656 34.425781 C 93.625 34.886719 93.21875 35.300781 92.761719 35.65625 L 85.679688 39.363281 C 84.828125 38.753906 83.183594 33.046875 83.28125 32.339844 C 83.351562 31.617188 83.925781 31.050781 84.644531 30.992188 Z M 84.644531 30.992188 "/>
<path style=" stroke:none;fill-rule:nonzero;fill:rgb(96.470588%,46.666667%,43.921569%);fill-opacity:1;" d="M 92.417969 33.167969 C 92.742188 33.515625 91.679688 40.363281 89.601562 40.609375 C 87.519531 40.859375 85.070312 38.101562 84.855469 37.28125 C 84.640625 36.457031 84.765625 32.070312 85.585938 31.65625 C 86.40625 31.238281 90.472656 31.0625 92.417969 33.167969 Z M 92.417969 33.167969 "/>
<path style=" stroke:none;fill-rule:nonzero;fill:rgb(12.54902%,3.529412%,1.568627%);fill-opacity:1;" d="M 91.449219 31.1875 C 91.449219 31.1875 91.859375 32.78125 89.375 33.078125 C 86.890625 33.378906 86.71875 33.9375 86.429688 34.8125 C 85.875 36.453125 84.132812 38.363281 83.53125 33.433594 C 83.5 33.195312 85.289062 29.835938 87.21875 29.558594 C 89.144531 29.28125 91.449219 31.1875 91.449219 31.1875 Z M 91.449219 31.1875 "/>
<path style=" stroke:none;fill-rule:nonzero;fill:rgb(96.470588%,46.666667%,43.921569%);fill-opacity:1;" d="M 86.207031 35.683594 C 86.207031 35.683594 85.429688 34.339844 84.824219 34.980469 C 84.21875 35.625 84.65625 37.125 85.476562 37.597656 "/>
<path style=" stroke:none;fill-rule:nonzero;fill:rgb(25.882353%,12.941176%,4.313725%);fill-opacity:1;" d="M 95.566406 43.144531 C 96.789062 45.28125 97.777344 47.542969 98.511719 49.894531 C 98.511719 49.894531 101.761719 42.070312 102.390625 42.183594 C 103.023438 42.296875 105.191406 43.648438 105.371094 44.558594 C 105.550781 45.46875 102.152344 57.511719 97.984375 58.59375 C 93.816406 59.679688 91.472656 50.371094 91.472656 50.371094 "/>
<use xlink:href="#surface11" mask="url(#mask2)"/>
<path style=" stroke:none;fill-rule:nonzero;fill:rgb(72.941176%,30.196078%,0.784314%);fill-opacity:1;" d="M 134.722656 109.796875 C 134.386719 109.800781 134.054688 109.75 133.738281 109.648438 L 133.589844 110.34375 L 149.582031 110.628906 L 149.582031 109.796875 Z M 134.722656 109.796875 "/>
<path style=" stroke:none;fill-rule:nonzero;fill:rgb(72.941176%,30.196078%,0.784314%);fill-opacity:1;" d="M 133.730469 109.675781 L 133.589844 110.34375 L 142.417969 113.90625 L 142.417969 113.042969 C 139.441406 112.035156 136.570312 110.871094 133.730469 109.675781 Z M 133.730469 109.675781 "/>
<path style=" stroke:none;fill-rule:nonzero;fill:rgb(72.941176%,30.196078%,0.784314%);fill-opacity:1;" d="M 142.027344 61.53125 L 141.921875 61.53125 C 141.460938 61.484375 141.039062 61.796875 140.949219 62.257812 L 131.113281 115.253906 C 131.035156 115.675781 131.265625 116.09375 131.667969 116.25 L 131.859375 116.328125 C 132.109375 116.421875 132.382812 116.402344 132.613281 116.273438 C 132.84375 116.144531 133.007812 115.917969 133.054688 115.660156 L 142.894531 62.589844 Z M 142.027344 61.53125 "/>
<path style=" stroke:none;fill-rule:nonzero;fill:rgb(72.941176%,30.196078%,0.784314%);fill-opacity:1;" d="M 151.582031 115.484375 L 145.066406 62.179688 C 145.015625 61.78125 144.683594 61.480469 144.285156 61.472656 L 143.875 61.472656 C 143.648438 61.480469 143.433594 61.578125 143.285156 61.75 C 143.136719 61.921875 143.066406 62.148438 143.09375 62.375 L 149.625 115.796875 C 149.652344 116.027344 149.773438 116.234375 149.964844 116.363281 C 150.15625 116.492188 150.390625 116.535156 150.613281 116.476562 L 150.996094 116.382812 C 151.394531 116.28125 151.648438 115.890625 151.582031 115.484375 Z M 151.582031 115.484375 "/>
<path style=" stroke:none;fill-rule:nonzero;fill:rgb(72.941176%,30.196078%,0.784314%);fill-opacity:1;" d="M 142.386719 120.464844 C 142.667969 120.503906 142.953125 120.421875 143.167969 120.234375 C 143.382812 120.046875 143.507812 119.777344 143.511719 119.496094 L 144.167969 61.472656 L 143.867188 61.472656 C 143.460938 61.472656 143.050781 61.472656 142.648438 61.53125 C 142.488281 61.539062 142.328125 61.539062 142.167969 61.53125 L 141.511719 119.457031 C 141.507812 119.960938 141.871094 120.386719 142.367188 120.457031 Z M 142.386719 120.464844 "/>
<path style=" stroke:none;fill-rule:nonzero;fill:rgb(40.784314%,88.235294%,99.215686%);fill-opacity:1;" d="M 136.484375 54.765625 C 135.324219 54.734375 132.894531 51.8125 132.144531 50.941406 C 130.8125 49.464844 129.707031 47.796875 128.863281 45.992188 C 124.179688 35.820312 130.453125 22.164062 142.132812 21.355469 C 142.960938 21.308594 143.789062 21.308594 144.617188 21.355469 C 152.304688 21.710938 158.125 29.378906 158.835938 36.609375 C 159.132812 40.261719 158.496094 43.925781 156.984375 47.257812 C 156.253906 48.839844 155.273438 50.292969 154.078125 51.5625 C 153.246094 52.445312 150.75 55.160156 149.464844 55.121094 Z M 136.484375 54.765625 "/>
<path style="fill:none;stroke-width:2;stroke-linecap:butt;stroke-linejoin:miter;stroke:rgb(94.901961%,94.901961%,94.901961%);stroke-opacity:1;stroke-miterlimit:10;" d="M 273.536585 107.262782 L 270.640244 67.709012 C 270.640244 67.709012 265.320122 57.999116 261.63872 64.867462 C 257.957317 71.743405 265.640244 76.233662 281.387195 75.557465 C 297.141768 74.888865 299.992378 67.450689 296.5625 64.563553 C 293.132622 61.668819 287.400915 65.657626 287.118902 67.678621 C 286.83689 69.699617 283.567073 107.232391 283.567073 107.232391 " transform="matrix(0.5125,0,0,0.514134,0,0.379902)"/>
<path style=" stroke:none;fill-rule:nonzero;fill:rgb(80%,80%,80%);fill-opacity:1;" d="M 135.566406 54.441406 L 150.664062 54.441406 C 151.953125 54.441406 152.996094 55.488281 152.996094 56.777344 C 152.996094 58.070312 151.953125 59.113281 150.664062 59.113281 L 135.566406 59.113281 C 134.277344 59.113281 133.234375 58.070312 133.234375 56.777344 C 133.234375 55.488281 134.277344 54.441406 135.566406 54.441406 Z M 135.566406 54.441406 "/>
<path style=" stroke:none;fill-rule:nonzero;fill:rgb(80%,80%,80%);fill-opacity:1;" d="M 135.566406 59.121094 L 150.664062 59.121094 C 151.953125 59.121094 152.996094 60.164062 152.996094 61.457031 C 152.996094 62.746094 151.953125 63.792969 150.664062 63.792969 L 135.566406 63.792969 C 134.277344 63.792969 133.234375 62.746094 133.234375 61.457031 C 133.234375 60.164062 134.277344 59.121094 135.566406 59.121094 Z M 135.566406 59.121094 "/>
<path style=" stroke:none;fill-rule:nonzero;fill:rgb(70.980392%,70.588235%,70.588235%);fill-opacity:1;" d="M 137.613281 59.074219 C 136.933594 58.679688 136.429688 58.039062 136.207031 57.285156 C 135.9375 56.320312 136.082031 55.289062 136.613281 54.441406 L 135.585938 54.441406 C 134.34375 54.5 133.363281 55.527344 133.363281 56.777344 C 133.363281 58.027344 134.34375 59.054688 135.585938 59.113281 L 137.566406 59.113281 Z M 137.613281 59.074219 "/>
<path style=" stroke:none;fill-rule:nonzero;fill:rgb(70.980392%,70.588235%,70.588235%);fill-opacity:1;" d="M 136.109375 61.921875 C 135.992188 60.785156 136.554688 59.683594 137.542969 59.121094 L 135.566406 59.121094 C 134.324219 59.179688 133.34375 60.207031 133.34375 61.457031 C 133.34375 62.707031 134.324219 63.734375 135.566406 63.792969 L 137.027344 63.792969 C 136.492188 63.3125 136.164062 62.640625 136.109375 61.921875 Z M 136.109375 61.921875 "/>
<path style=" stroke:none;fill-rule:nonzero;fill:rgb(40.784314%,88.235294%,99.215686%);fill-opacity:1;" d="M 138.347656 17.699219 L 136.300781 15.644531 C 135.863281 15.128906 135.175781 14.902344 134.519531 15.058594 C 133.863281 15.214844 133.351562 15.726562 133.191406 16.382812 C 133.03125 17.042969 133.253906 17.734375 133.761719 18.175781 L 135.617188 20.035156 L 135.828125 20.246094 C 136.527344 20.949219 137.664062 20.949219 138.363281 20.246094 C 139.066406 19.542969 139.066406 18.402344 138.363281 17.699219 Z M 138.347656 17.699219 "/>
<path style=" stroke:none;fill-rule:nonzero;fill:rgb(40.784314%,88.235294%,99.215686%);fill-opacity:1;" d="M 141.714844 11 L 141.714844 15.378906 C 141.714844 17.691406 145.304688 17.695312 145.304688 15.378906 L 145.304688 11 C 145.304688 8.6875 141.714844 8.683594 141.714844 11 Z M 141.714844 11 "/>
<path style=" stroke:none;fill-rule:nonzero;fill:rgb(40.784314%,88.235294%,99.215686%);fill-opacity:1;" d="M 153.492188 15.566406 C 152.785156 14.882812 151.664062 14.882812 150.957031 15.566406 L 148.679688 17.769531 C 147.980469 18.46875 147.980469 19.609375 148.679688 20.3125 C 149.382812 21.015625 150.519531 21.015625 151.21875 20.3125 L 153.492188 18.113281 C 154.1875 17.40625 154.1875 16.273438 153.492188 15.566406 Z M 153.492188 15.566406 "/>
<path style=" stroke:none;fill-rule:nonzero;fill:rgb(19.215686%,16.078431%,63.921569%);fill-opacity:1;" d="M 94.851562 68.699219 L 87.5625 64.394531 L 100.546875 55.890625 L 107.441406 58.632812 "/>
<path style=" stroke:none;fill-rule:nonzero;fill:rgb(40.784314%,88.235294%,99.215686%);fill-opacity:1;" d="M 94.851562 67.960938 C 94.734375 67.414062 98.378906 57.125 98.378906 57.125 L 113.390625 48.566406 L 108.777344 60.285156 L 94.828125 68.691406 Z M 94.851562 67.960938 "/>
<path style=" stroke:none;fill-rule:nonzero;fill:rgb(19.215686%,16.078431%,63.921569%);fill-opacity:1;" d="M 104.855469 58.4375 C 104.40625 58.226562 103.703125 58.773438 103.285156 59.660156 C 102.863281 60.546875 102.886719 61.4375 103.332031 61.652344 C 103.78125 61.863281 104.484375 61.316406 104.902344 60.429688 C 105.324219 59.542969 105.300781 58.652344 104.855469 58.4375 Z M 104.855469 58.4375 "/>
<path style=" stroke:none;fill-rule:nonzero;fill:rgb(96.470588%,46.666667%,43.921569%);fill-opacity:1;" d="M 90.003906 67.21875 L 92.164062 66.421875 C 92.164062 66.421875 94.003906 65.675781 94.433594 66.015625 C 94.863281 66.355469 92.820312 67.40625 92.417969 67.667969 C 92.019531 67.933594 95.574219 68.21875 95.832031 68.550781 C 96.089844 68.878906 95.800781 69.1875 95.5 69.285156 C 95.195312 69.382812 96.269531 69.570312 95.925781 70.085938 C 95.675781 70.382812 95.273438 70.507812 94.898438 70.40625 C 94.898438 70.40625 95.382812 71.082031 94.847656 71.371094 C 94.316406 71.660156 90.339844 71.007812 89.484375 70.34375 C 88.625 69.679688 88.898438 67.640625 90.003906 67.21875 Z M 90.003906 67.21875 "/>
<path style=" stroke:none;fill-rule:nonzero;fill:rgb(96.470588%,46.666667%,43.921569%);fill-opacity:1;" d="M 89.609375 70.570312 C 89.609375 70.570312 92.429688 72.414062 92.859375 72 C 93.289062 71.582031 92.558594 70.457031 92.558594 70.457031 C 92.558594 70.457031 89.753906 69.617188 89.320312 69.730469 C 88.882812 69.84375 89.609375 70.570312 89.609375 70.570312 Z M 89.609375 70.570312 "/>
<path style=" stroke:none;fill-rule:nonzero;fill:rgb(25.882353%,12.941176%,4.313725%);fill-opacity:1;" d="M 79.359375 44.816406 C 79.359375 44.816406 75.851562 51.976562 78.257812 57.550781 C 80.667969 63.125 87.894531 69.699219 87.894531 69.699219 L 89.917969 66.101562 L 84.5625 54.832031 "/>
<path style=" stroke:none;fill-rule:nonzero;fill:rgb(45.098039%,60.784314%,87.843137%);fill-opacity:1;" d="M 69.117188 38.511719 L 69.117188 39.859375 L 34.992188 59.667969 L 23.691406 52.933594 L 23.691406 51.699219 "/>
<path style=" stroke:none;fill-rule:nonzero;fill:rgb(64.313725%,75.294118%,100%);fill-opacity:1;" d="M 69.117188 38.511719 L 57.882812 32.082031 L 23.691406 51.699219 L 35.113281 58.3125 Z M 69.117188 38.511719 "/>
<path style=" stroke:none;fill-rule:nonzero;fill:rgb(40.784314%,88.235294%,99.215686%);fill-opacity:1;" d="M 52.492188 31.742188 C 53.109375 31.128906 53.058594 30.917969 53.136719 30.113281 C 53.964844 29.8125 55.246094 29.121094 56.488281 29.207031 C 57.375 29.269531 58.539062 29.882812 59.246094 30.113281 C 59.625 31.371094 59.871094 32.015625 61.074219 32.652344 C 61.351562 32.792969 61.636719 32.917969 61.929688 33.023438 C 62.644531 33.285156 63.074219 34.015625 62.957031 34.769531 C 62.597656 37.082031 61.253906 41.027344 56.292969 41.027344 C 50.875 41.027344 50.023438 36.445312 49.921875 34.261719 C 49.902344 33.832031 50.117188 33.425781 50.488281 33.207031 C 51.210938 32.800781 51.882812 32.308594 52.492188 31.742188 Z M 52.492188 31.742188 "/>
<path style=" stroke:none;fill-rule:nonzero;fill:rgb(12.54902%,3.529412%,1.568627%);fill-opacity:1;" d="M 59.246094 30.101562 C 59.246094 29.46875 57.878906 28.957031 56.191406 28.957031 C 54.503906 28.957031 53.136719 29.46875 53.136719 30.101562 C 53.136719 30.734375 54.503906 31.25 56.191406 31.25 C 57.878906 31.25 59.246094 30.734375 59.246094 30.101562 Z M 59.246094 30.101562 "/>
<path style=" stroke:none;fill-rule:nonzero;fill:rgb(19.215686%,16.078431%,63.921569%);fill-opacity:1;" d="M 59.449219 26.601562 C 59.089844 27.980469 58.839844 29.390625 58.625 30.789062 C 58.527344 30.847656 58.433594 30.898438 58.332031 30.945312 L 57.890625 31.082031 L 57.695312 31.128906 C 57.925781 29.519531 58.242188 27.921875 58.636719 26.34375 C 58.636719 26.261719 58.597656 26.179688 58.578125 26.097656 C 58.179688 25.648438 57.59375 24.875 58.203125 24.503906 C 58.574219 24.28125 58.855469 24.503906 59.058594 24.875 C 59.628906 22.992188 60.539062 21.234375 61.742188 19.6875 C 61.417969 19.089844 61.5 18.144531 61.570312 17.515625 C 61.644531 16.890625 61.84375 16.046875 62.449219 15.789062 C 62.617188 15.703125 62.820312 15.730469 62.960938 15.855469 C 63.304688 16.179688 63.261719 16.769531 63.261719 17.203125 C 63.261719 17.503906 63.261719 17.808594 63.261719 18.105469 C 63.476562 17.921875 63.695312 17.730469 63.929688 17.558594 C 64.125 16.734375 64.601562 16.007812 65.273438 15.5 C 65.75 15.171875 66.640625 14.796875 67.117188 15.320312 C 68.238281 16.550781 65.390625 17.941406 64.59375 18.25 C 64.539062 18.273438 64.480469 18.285156 64.421875 18.28125 C 64.117188 18.519531 63.828125 18.773438 63.550781 19.042969 C 64.035156 18.90625 64.542969 18.867188 65.046875 18.925781 C 65.625 18.996094 66.554688 19.273438 66.671875 19.953125 C 66.949219 21.601562 63.140625 20.835938 62.398438 20.632812 C 62.320312 20.613281 62.253906 20.570312 62.203125 20.511719 C 61.742188 21.121094 61.335938 21.765625 60.988281 22.441406 C 61.445312 22.199219 61.945312 22.058594 62.457031 22.023438 C 62.996094 21.992188 63.996094 22.023438 64.28125 22.582031 C 64.609375 23.25 63.8125 23.648438 63.3125 23.8125 C 62.429688 24.050781 61.503906 24.125 60.59375 24.03125 C 60.488281 24.027344 60.386719 23.984375 60.3125 23.90625 C 60.109375 24.421875 59.941406 24.933594 59.796875 25.449219 C 60.675781 24.828125 62.242188 24.570312 62.875 25.449219 C 62.953125 25.585938 62.953125 25.75 62.875 25.886719 C 62.683594 26.28125 62.070312 26.34375 61.695312 26.445312 C 61.09375 26.605469 60.488281 26.730469 59.875 26.828125 C 59.703125 26.839844 59.535156 26.753906 59.449219 26.601562 Z M 59.449219 26.601562 "/>
<path style=" stroke:none;fill-rule:nonzero;fill:rgb(19.215686%,16.078431%,63.921569%);fill-opacity:1;" d="M 60.546875 20.332031 C 60.980469 19.980469 61.570312 19.304688 61.15625 18.730469 C 60.742188 18.152344 59.917969 18.609375 59.46875 18.878906 C 59.167969 19.0625 58.898438 19.296875 58.675781 19.574219 C 58.9375 18.640625 59.1875 17.714844 59.527344 16.800781 C 59.945312 16.929688 60.398438 16.875 60.78125 16.660156 C 61.160156 16.441406 61.4375 16.078125 61.539062 15.648438 C 61.78125 14.664062 61.539062 13.417969 60.449219 13.078125 C 59.535156 12.78125 58.542969 13.195312 58.113281 14.054688 C 57.679688 14.914062 57.933594 15.960938 58.710938 16.523438 C 58.53125 17.039062 58.375 17.550781 58.199219 18.066406 C 58.074219 17.5625 57.863281 17.085938 57.574219 16.652344 C 57.152344 16.035156 56.550781 15.367188 55.75 15.625 C 55.632812 15.660156 55.539062 15.742188 55.488281 15.851562 C 55.4375 15.960938 55.4375 16.089844 55.484375 16.199219 C 55.621094 17.707031 56.507812 18.828125 57.535156 19.871094 C 57.566406 19.90625 57.605469 19.933594 57.652344 19.953125 C 57.503906 20.511719 57.382812 21.085938 57.257812 21.644531 C 57.042969 20.347656 56.550781 18.847656 55.375 19.382812 C 53.730469 20.128906 55.886719 22.722656 56.507812 23.445312 C 56.597656 23.535156 56.722656 23.578125 56.847656 23.5625 C 56.363281 26.105469 56.078125 28.683594 55.992188 31.273438 C 56.140625 31.273438 56.289062 31.273438 56.4375 31.273438 C 56.585938 31.273438 56.71875 31.273438 56.855469 31.273438 C 56.933594 29.140625 57.148438 27.011719 57.496094 24.902344 L 57.523438 24.902344 C 58.054688 24.652344 58.546875 24.324219 58.988281 23.9375 C 59.3125 23.578125 59.738281 23 59.5 22.496094 C 59.359375 22.277344 59.136719 22.128906 58.878906 22.078125 C 58.625 22.03125 58.359375 22.089844 58.148438 22.242188 C 58.101562 22.265625 58.0625 22.300781 58.019531 22.332031 C 58.085938 22.035156 58.136719 21.738281 58.210938 21.445312 C 58.242188 21.449219 58.273438 21.449219 58.308594 21.445312 C 59.132812 21.257812 59.898438 20.878906 60.546875 20.332031 Z M 60.035156 13.855469 C 60.746094 13.980469 60.855469 14.832031 60.707031 15.398438 C 60.558594 15.964844 59.976562 16.054688 59.449219 15.859375 C 59.398438 15.851562 59.34375 15.851562 59.292969 15.859375 C 58.398438 15.207031 58.84375 13.644531 60.039062 13.855469 Z M 60.035156 13.855469 "/>
<path style=" stroke:none;fill-rule:nonzero;fill:rgb(19.215686%,16.078431%,63.921569%);fill-opacity:1;" d="M 43.347656 17.234375 C 44.339844 17.035156 45.351562 17.457031 45.910156 18.300781 C 46.019531 18.328125 46.113281 18.40625 46.15625 18.511719 C 46.371094 18.621094 46.566406 18.746094 46.765625 18.859375 C 46.355469 18.105469 46.265625 17.21875 46.519531 16.398438 C 46.574219 16.238281 46.71875 16.128906 46.886719 16.113281 C 46.992188 16.089844 47.097656 16.109375 47.1875 16.167969 L 47.242188 16.203125 C 48.0625 17.050781 48.414062 18.246094 48.175781 19.402344 C 48.160156 19.503906 48.113281 19.59375 48.042969 19.664062 C 51.769531 22.347656 53.71875 26.707031 54.808594 31.195312 C 54.476562 31.128906 54.15625 31.023438 53.847656 30.882812 C 52.78125 26.769531 50.949219 22.851562 47.535156 20.378906 C 47.023438 21.4375 45.859375 21.792969 44.75 21.882812 C 44.632812 21.898438 44.511719 21.851562 44.433594 21.761719 C 44.203125 21.65625 44.097656 21.382812 44.203125 21.152344 C 44.5 20.699219 44.917969 20.34375 45.40625 20.121094 C 45.738281 19.917969 46.105469 19.773438 46.484375 19.6875 C 46.171875 19.503906 45.851562 19.332031 45.519531 19.171875 C 44.550781 19.140625 43.652344 18.652344 43.089844 17.859375 C 43.027344 17.746094 43.019531 17.605469 43.070312 17.484375 C 43.121094 17.363281 43.222656 17.269531 43.347656 17.234375 Z M 43.347656 17.234375 "/>
<path style=" stroke:none;fill-rule:nonzero;fill:rgb(19.215686%,16.078431%,63.921569%);fill-opacity:1;" d="M 49.917969 18.195312 C 49.964844 18.144531 50.023438 18.105469 50.085938 18.082031 C 50.289062 17.964844 50.542969 18.023438 50.671875 18.21875 C 51.304688 19.171875 51.183594 20.914062 50.597656 21.855469 C 50.507812 21.988281 50.355469 22.0625 50.195312 22.050781 C 50.035156 22.039062 49.894531 21.941406 49.824219 21.792969 C 49.753906 21.746094 49.695312 21.679688 49.660156 21.597656 C 49.199219 20.472656 49.046875 19.152344 49.917969 18.195312 Z M 49.917969 18.195312 "/>
<path style=" stroke:none;fill-rule:nonzero;fill:rgb(19.215686%,16.078431%,63.921569%);fill-opacity:1;" d="M 52.304688 20.976562 C 52.351562 20.925781 52.410156 20.886719 52.476562 20.863281 C 52.675781 20.746094 52.933594 20.808594 53.058594 21 C 53.695312 21.953125 53.570312 23.695312 52.988281 24.636719 C 52.898438 24.769531 52.742188 24.84375 52.582031 24.832031 C 52.421875 24.820312 52.28125 24.722656 52.214844 24.574219 C 52.140625 24.527344 52.082031 24.460938 52.050781 24.378906 C 51.597656 23.257812 51.433594 21.9375 52.304688 20.976562 Z M 52.304688 20.976562 "/>
<path style=" stroke:none;fill-rule:nonzero;fill:rgb(19.215686%,16.078431%,63.921569%);fill-opacity:1;" d="M 46.453125 23.167969 C 46.394531 23.132812 46.34375 23.082031 46.308594 23.023438 C 46.148438 22.855469 46.148438 22.589844 46.308594 22.421875 C 47.121094 21.613281 48.847656 21.390625 49.898438 21.796875 C 50.042969 21.863281 50.144531 22 50.164062 22.160156 C 50.179688 22.316406 50.113281 22.476562 49.984375 22.570312 C 49.953125 22.648438 49.894531 22.71875 49.824219 22.765625 C 48.820312 23.429688 47.558594 23.84375 46.453125 23.167969 Z M 46.453125 23.167969 "/>
<path style=" stroke:none;fill-rule:nonzero;fill:rgb(19.215686%,16.078431%,63.921569%);fill-opacity:1;" d="M 48.308594 25.058594 C 48.261719 25.003906 48.230469 24.941406 48.214844 24.875 C 48.125 24.660156 48.214844 24.410156 48.425781 24.308594 C 49.449219 23.792969 51.15625 24.121094 52.011719 24.820312 C 52.132812 24.925781 52.1875 25.089844 52.15625 25.246094 C 52.125 25.402344 52.011719 25.53125 51.859375 25.582031 C 51.804688 25.648438 51.730469 25.699219 51.644531 25.722656 C 50.472656 26.046875 49.144531 26.039062 48.308594 25.058594 Z M 48.308594 25.058594 "/>
<path style=" stroke:none;fill-rule:nonzero;fill:rgb(19.215686%,16.078431%,63.921569%);fill-opacity:1;" d="M 50.308594 33.320312 C 51.378906 34.128906 52.609375 34.378906 54.007812 34.574219 C 54.800781 34.6875 56.414062 35.316406 56.058594 36.195312 C 55.976562 36.390625 55.585938 36.542969 55.449219 36.707031 C 55.207031 36.921875 55.03125 37.199219 54.933594 37.503906 C 54.753906 38.394531 55.582031 39.046875 56.355469 39.226562 C 57.042969 39.300781 57.742188 39.234375 58.40625 39.03125 C 58.820312 38.960938 59.992188 38.578125 60.355469 38.875 C 60.539062 39.007812 60.683594 39.183594 60.789062 39.386719 C 59.558594 40.507812 57.929688 41.085938 56.273438 40.996094 C 50.855469 40.996094 50.003906 36.414062 49.902344 34.230469 C 49.894531 33.882812 50.042969 33.546875 50.308594 33.320312 Z M 50.308594 33.320312 "/>
<path style=" stroke:none;fill-rule:nonzero;fill:rgb(94.901961%,94.901961%,94.901961%);fill-opacity:1;" d="M 38.367188 30.523438 L 40.25 29.453125 L 49.917969 35.089844 L 49.628906 47.339844 L 47.871094 48.453125 "/>
<path style=" stroke:none;fill-rule:nonzero;fill:rgb(40.784314%,88.235294%,99.215686%);fill-opacity:1;" d="M 47.871094 36.210938 L 47.871094 48.453125 L 38.367188 43.253906 L 38.367188 30.523438 Z M 47.871094 36.210938 "/>
<path style=" stroke:none;fill-rule:nonzero;fill:rgb(94.901961%,94.901961%,94.901961%);fill-opacity:1;" d="M 35.382812 32.421875 L 37.273438 31.351562 L 46.933594 36.984375 L 46.652344 49.238281 L 44.890625 50.34375 "/>
<path style=" stroke:none;fill-rule:nonzero;fill:rgb(40.784314%,88.235294%,99.215686%);fill-opacity:1;" d="M 44.890625 38.105469 L 44.890625 50.34375 L 35.382812 45.152344 L 35.382812 32.421875 Z M 44.890625 38.105469 "/>
</g>
</svg>
