<?xml version="1.0" encoding="UTF-8"?>
<svg xmlns="http://www.w3.org/2000/svg" xmlns:xlink="http://www.w3.org/1999/xlink" width="206px" height="155px" viewBox="0 0 205 155" version="1.1">
<defs>
<linearGradient id="linear0" gradientUnits="userSpaceOnUse" x1="127.57" y1="231.54" x2="148.79" y2="200.01" gradientTransform="matrix(0.5125,0,0,0.514134,0,0.379902)">
<stop offset="0" style="stop-color:rgb(100%,89.411765%,12.156863%);stop-opacity:1;"/>
<stop offset="1" style="stop-color:rgb(100%,29.411765%,15.686275%);stop-opacity:1;"/>
</linearGradient>
<linearGradient id="linear1" gradientUnits="userSpaceOnUse" x1="317.3" y1="201.68" x2="327.7" y2="186.22" gradientTransform="matrix(0.5125,0,0,0.514134,0,0.379902)">
<stop offset="0" style="stop-color:rgb(100%,89.411765%,12.156863%);stop-opacity:1;"/>
<stop offset="1" style="stop-color:rgb(100%,29.411765%,15.686275%);stop-opacity:1;"/>
</linearGradient>
<linearGradient id="linear2" gradientUnits="userSpaceOnUse" x1="80.38" y1="159.26" x2="89.5" y2="145.7" gradientTransform="matrix(0.5125,0,0,0.514134,0,0.379902)">
<stop offset="0" style="stop-color:rgb(100%,89.411765%,12.156863%);stop-opacity:1;"/>
<stop offset="1" style="stop-color:rgb(100%,29.411765%,15.686275%);stop-opacity:1;"/>
</linearGradient>
<linearGradient id="linear3" gradientUnits="userSpaceOnUse" x1="56.81" y1="194.95" x2="65.93" y2="181.38" gradientTransform="matrix(0.5125,0,0,0.514134,0,0.379902)">
<stop offset="0" style="stop-color:rgb(100%,89.411765%,12.156863%);stop-opacity:1;"/>
<stop offset="1" style="stop-color:rgb(100%,29.411765%,15.686275%);stop-opacity:1;"/>
</linearGradient>
<linearGradient id="linear4" gradientUnits="userSpaceOnUse" x1="190.79" y1="257.57" x2="218.88" y2="215.81" gradientTransform="matrix(0.5125,0,0,0.514134,0,0.379902)">
<stop offset="0" style="stop-color:rgb(100%,89.411765%,12.156863%);stop-opacity:1;"/>
<stop offset="1" style="stop-color:rgb(100%,29.411765%,15.686275%);stop-opacity:1;"/>
</linearGradient>
<filter id="alpha" filterUnits="objectBoundingBox" x="0%" y="0%" width="100%" height="100%">
  <feColorMatrix type="matrix" in="SourceGraphic" values="0 0 0 0 1 0 0 0 0 1 0 0 0 0 1 0 0 0 1 0"/>
</filter>
<mask id="mask0">
  <g filter="url(#alpha)">
<rect x="0" y="0" width="205" height="155" style="fill:rgb(0%,0%,0%);fill-opacity:0.490196;stroke:none;"/>
  </g>
</mask>
<clipPath id="clip1">
  <rect x="0" y="0" width="205" height="155"/>
</clipPath>
<g id="surface5" clip-path="url(#clip1)">
<path style=" stroke:none;fill-rule:nonzero;fill:rgb(100%,100%,100%);fill-opacity:1;" d="M 93.253906 42.570312 L 122.421875 25.910156 L 146.769531 40.175781 L 118.386719 56.996094 Z M 93.253906 42.570312 "/>
</g>
<mask id="mask1">
  <g filter="url(#alpha)">
<rect x="0" y="0" width="205" height="155" style="fill:rgb(0%,0%,0%);fill-opacity:0.2;stroke:none;"/>
  </g>
</mask>
<clipPath id="clip2">
  <rect x="0" y="0" width="205" height="155"/>
</clipPath>
<g id="surface8" clip-path="url(#clip2)">
<path style=" stroke:none;fill-rule:nonzero;fill:rgb(0%,0%,0%);fill-opacity:1;" d="M 118.386719 56.996094 L 118.386719 126.378906 L 146.769531 109.554688 L 146.769531 40.175781 Z M 118.386719 56.996094 "/>
</g>
</defs>
<g id="surface1">
<path style=" stroke:none;fill-rule:nonzero;fill:rgb(100%,89.411765%,12.156863%);fill-opacity:1;" d="M 100.574219 148.757812 L 12.167969 96.34375 C 9.351562 94.757812 6.9375 92.152344 9.679688 90.449219 L 98.398438 39.152344 C 99.734375 38.324219 101.75 37.78125 103.105469 38.570312 L 195.917969 92.601562 C 198.730469 94.238281 199.238281 98.820312 196.429688 100.460938 L 112.238281 148.675781 C 108.636719 150.773438 104.203125 150.804688 100.574219 148.757812 Z M 100.574219 148.757812 "/>
<path style=" stroke:none;fill-rule:nonzero;fill:url(#linear0);" d="M 84.664062 104.234375 L 81.226562 104.089844 L 54.4375 116.476562 L 60.890625 125.214844 L 85.855469 108.140625 C 85.238281 106.929688 85.421875 105.382812 84.664062 104.234375 Z M 84.664062 104.234375 "/>
<path style=" stroke:none;fill-rule:nonzero;fill:url(#linear1);" d="M 172.164062 96.6875 L 168.242188 96.523438 L 154.457031 102.898438 L 162.703125 107.960938 L 173.523438 101.148438 C 172.820312 99.757812 173.03125 97.988281 172.164062 96.6875 Z M 172.164062 96.6875 "/>
<path style=" stroke:none;fill-rule:nonzero;fill:url(#linear2);" d="M 49.570312 75.78125 L 46.125 75.640625 L 34.03125 81.234375 L 41.265625 85.675781 L 50.738281 79.699219 C 50.144531 78.476562 50.328125 76.929688 49.570312 75.78125 Z M 49.570312 75.78125 "/>
<path style=" stroke:none;fill-rule:nonzero;fill:url(#linear3);" d="M 37.488281 94.132812 L 34.050781 93.988281 L 21.957031 99.582031 L 29.210938 104.023438 L 38.679688 98.066406 C 38.0625 96.828125 38.246094 95.277344 37.488281 94.132812 Z M 37.488281 94.132812 "/>
<path style=" stroke:none;fill-rule:nonzero;fill:url(#linear4);" d="M 146.769531 109.554688 L 95.382812 140.320312 L 69.382812 125.34375 L 102.988281 107.710938 "/>
<path style=" stroke:none;fill-rule:nonzero;fill:rgb(40.784314%,88.235294%,99.215686%);fill-opacity:1;" d="M 122.421875 25.910156 L 93.253906 42.570312 L 93.253906 111.953125 L 118.386719 126.378906 L 146.769531 109.554688 L 146.769531 40.175781 Z M 122.421875 25.910156 "/>
<use xlink:href="#surface5" mask="url(#mask0)"/>
<use xlink:href="#surface8" mask="url(#mask1)"/>
<path style=" stroke:none;fill-rule:nonzero;fill:rgb(89.803922%,39.215686%,38.039216%);fill-opacity:1;" d="M 149.828125 32.199219 C 149.828125 32.199219 153.246094 29.753906 153.5 27.761719 C 153.628906 26.59375 153.015625 25.46875 151.960938 24.949219 L 149.597656 27.761719 "/>
<path style=" stroke:none;fill-rule:nonzero;fill:rgb(96.470588%,46.666667%,43.921569%);fill-opacity:1;" d="M 90.742188 33.941406 C 91.074219 32.980469 91.21875 31.960938 91.167969 30.945312 C 91.003906 30.121094 89.914062 26.925781 90.265625 26.574219 C 91.234375 25.609375 91.25 28.511719 91.664062 28.226562 C 92.082031 27.9375 92.941406 24.925781 93.433594 24.511719 C 93.925781 24.101562 95.484375 25.089844 95.652344 26.054688 C 95.695312 27.109375 95.566406 28.160156 95.273438 29.171875 L 92.710938 35.460938 "/>
<path style=" stroke:none;fill-rule:nonzero;fill:rgb(25.882353%,12.941176%,4.313725%);fill-opacity:1;" d="M 82.652344 100.636719 C 82.519531 101.308594 82.691406 102.003906 83.121094 102.53125 C 83.835938 103.304688 86.566406 105.730469 86.824219 106.253906 C 87.078125 106.78125 87.441406 108.214844 86.824219 108.714844 C 86.203125 109.210938 84.992188 109.261719 83.507812 108.714844 C 82.019531 108.164062 78.449219 105.84375 77.789062 105.113281 C 77.125 104.382812 77.789062 97.007812 77.789062 97.007812 C 77.789062 97.007812 81.617188 96.070312 82.914062 97.007812 Z M 82.652344 100.636719 "/>
<path style=" stroke:none;fill-rule:nonzero;fill:rgb(25.882353%,12.941176%,4.313725%);fill-opacity:1;" d="M 72.570312 105.570312 C 72.4375 106.242188 72.613281 106.9375 73.042969 107.46875 C 73.753906 108.238281 76.484375 110.667969 76.742188 111.191406 C 76.996094 111.714844 77.363281 113.148438 76.742188 113.648438 C 76.121094 114.148438 74.914062 114.199219 73.425781 113.648438 C 71.941406 113.097656 68.367188 110.78125 67.707031 110.050781 C 67.046875 109.320312 67.707031 101.941406 67.707031 101.941406 C 67.707031 101.941406 71.535156 101.007812 72.832031 101.941406 Z M 72.570312 105.570312 "/>
<path style=" stroke:none;fill-rule:nonzero;fill:rgb(90.196078%,90.196078%,90.196078%);fill-opacity:1;" d="M 83.117188 52.878906 C 83.117188 52.878906 85.074219 61.5625 85.199219 69.699219 C 85.320312 77.839844 84.367188 99.664062 84.367188 99.664062 C 84.367188 99.664062 82.121094 101.828125 77.191406 101.066406 L 77.191406 70.765625 C 77.191406 70.765625 75.472656 71.40625 75.472656 72.691406 C 75.472656 73.976562 73.898438 104.96875 73.898438 104.96875 C 73.898438 104.96875 73.015625 106.609375 66.5625 104.101562 C 66.5625 104.101562 64.359375 63.023438 69.09375 55.058594 "/>
<path style=" stroke:none;fill-rule:nonzero;fill:rgb(25.882353%,12.941176%,4.313725%);fill-opacity:1;" d="M 70.660156 54.996094 C 71.796875 54.957031 74.964844 55.753906 77.117188 55.59375 C 79.203125 55.503906 81.273438 55.140625 83.265625 54.507812 C 83.347656 54.128906 83.417969 53.726562 83.476562 53.285156 C 84.910156 42.183594 84.527344 34.394531 83.476562 32.636719 C 82.425781 30.878906 76.136719 29.484375 73.289062 30.28125 C 70.4375 31.078125 66.113281 34.425781 66.113281 34.425781 C 66.113281 34.425781 67.292969 43.84375 69.398438 50.542969 C 69.972656 52.414062 69.972656 52.414062 70.660156 54.996094 Z M 70.660156 54.996094 "/>
<path style=" stroke:none;fill-rule:nonzero;fill:rgb(25.882353%,12.941176%,4.313725%);fill-opacity:1;" d="M 77.839844 31.332031 C 78.863281 31.546875 79.039062 28.761719 78.605469 28.484375 C 78.175781 28.203125 73.445312 28.195312 72.71875 28.519531 C 71.121094 29.226562 72.71875 31.601562 72.71875 31.601562 "/>
<path style=" stroke:none;fill-rule:nonzero;fill:rgb(12.54902%,3.529412%,1.568627%);fill-opacity:1;" d="M 71.75 19.597656 C 72.664062 19.4375 72.632812 17.917969 74.3125 17.21875 C 75.992188 16.519531 77.996094 17.519531 78.746094 18.0625 C 79.492188 18.601562 80.03125 17.503906 80.835938 18.34375 C 81.640625 19.183594 81.132812 20.472656 81.605469 20.914062 L 81.671875 20.964844 C 82.089844 21.667969 82.113281 22.539062 81.738281 23.265625 C 81.375 23.765625 80.945312 24.21875 80.460938 24.605469 L 72.867188 28.582031 C 71.953125 27.925781 70.191406 21.8125 70.304688 21.046875 C 70.378906 20.28125 70.984375 19.671875 71.75 19.597656 Z M 71.75 19.597656 "/>
<path style=" stroke:none;fill-rule:nonzero;fill:rgb(96.470588%,46.666667%,43.921569%);fill-opacity:1;" d="M 80.105469 21.933594 C 80.445312 22.300781 79.316406 29.644531 77.085938 29.917969 C 74.855469 30.1875 72.230469 27.222656 71.996094 26.34375 C 71.761719 25.464844 71.898438 20.761719 72.800781 20.316406 C 73.703125 19.875 78.011719 19.675781 80.105469 21.933594 Z M 80.105469 21.933594 "/>
<path style=" stroke:none;fill-rule:nonzero;fill:rgb(12.54902%,3.529412%,1.568627%);fill-opacity:1;" d="M 79.0625 19.808594 C 79.0625 19.808594 79.503906 21.515625 76.839844 21.839844 C 74.175781 22.164062 73.996094 22.761719 73.675781 23.695312 C 73.082031 25.453125 71.210938 27.5 70.578125 22.214844 C 70.546875 21.957031 72.457031 18.339844 74.527344 18.054688 C 76.597656 17.773438 79.0625 19.808594 79.0625 19.808594 Z M 79.0625 19.808594 "/>
<path style=" stroke:none;fill-rule:nonzero;fill:rgb(96.470588%,46.666667%,43.921569%);fill-opacity:1;" d="M 73.441406 24.636719 C 73.441406 24.636719 72.605469 23.191406 71.953125 23.882812 C 71.304688 24.570312 71.777344 26.179688 72.652344 26.683594 "/>
<path style=" stroke:none;fill-rule:nonzero;fill:rgb(25.882353%,12.941176%,4.313725%);fill-opacity:1;" d="M 83.476562 32.632812 C 84.78125 34.921875 85.832031 37.351562 86.613281 39.871094 C 86.613281 39.871094 90.097656 31.480469 90.773438 31.597656 C 91.449219 31.714844 93.773438 33.171875 93.96875 34.144531 C 94.160156 35.113281 90.519531 48.023438 86.046875 49.191406 C 81.578125 50.359375 79.0625 40.394531 79.0625 40.394531 "/>
<path style=" stroke:none;fill-rule:nonzero;fill:rgb(96.470588%,46.666667%,43.921569%);fill-opacity:1;" d="M 70.726562 52.414062 L 73.050781 53.226562 C 73.050781 53.226562 75.101562 53.867188 75.210938 54.4375 C 75.316406 55.007812 72.921875 54.492188 72.417969 54.4375 C 71.910156 54.378906 74.660156 57.046875 74.652344 57.496094 C 74.640625 57.941406 74.195312 58.007812 73.875 57.875 C 73.558594 57.742188 74.324219 58.640625 73.6875 58.832031 C 73.269531 58.914062 72.84375 58.738281 72.605469 58.382812 C 72.605469 58.382812 72.542969 59.273438 71.910156 59.152344 C 71.273438 59.027344 68.417969 55.777344 68.164062 54.632812 C 67.90625 53.484375 69.515625 52 70.726562 52.414062 Z M 70.726562 52.414062 "/>
<path style=" stroke:none;fill-rule:nonzero;fill:rgb(96.470588%,46.666667%,43.921569%);fill-opacity:1;" d="M 68.121094 54.917969 C 68.121094 54.917969 69.207031 58.375 69.847656 58.324219 C 70.488281 58.269531 70.660156 56.816406 70.660156 56.816406 C 70.660156 56.816406 68.902344 54.210938 68.464844 54.003906 C 68.027344 53.796875 68.121094 54.917969 68.121094 54.917969 Z M 68.121094 54.917969 "/>
<path style=" stroke:none;fill-rule:nonzero;fill:rgb(25.882353%,12.941176%,4.313725%);fill-opacity:1;" d="M 66.203125 34.3125 C 66.203125 34.3125 59.195312 42.789062 58.425781 45.820312 C 57.65625 48.847656 67.332031 56.144531 67.332031 56.144531 L 70.84375 52.394531 C 70.84375 52.394531 64.589844 46.460938 65.488281 45.550781 C 66.382812 44.640625 71.179688 40.121094 71.179688 40.121094 "/>
<path style=" stroke:none;fill-rule:nonzero;fill:rgb(26.666667%,26.666667%,64.705882%);fill-opacity:1;" d="M 96.128906 54.878906 L 78.964844 127.636719 C 78.550781 129.386719 81.242188 130.136719 81.65625 128.382812 L 98.816406 55.644531 C 99.230469 53.894531 96.539062 53.144531 96.125 54.898438 Z M 96.128906 54.878906 "/>
<path style=" stroke:none;fill-rule:nonzero;fill:rgb(26.666667%,26.666667%,64.705882%);fill-opacity:1;" d="M 112.238281 63.511719 L 95.074219 136.25 C 94.660156 138 97.347656 138.75 97.765625 136.996094 L 114.921875 64.257812 C 115.339844 62.507812 112.648438 61.757812 112.230469 63.511719 Z M 112.238281 63.511719 "/>
<path style=" stroke:none;fill-rule:nonzero;fill:rgb(26.666667%,26.666667%,64.705882%);fill-opacity:1;" d="M 94.339844 66.367188 L 110.445312 75.390625 C 112.011719 76.269531 113.421875 73.851562 111.851562 72.976562 L 95.75 63.953125 C 94.183594 63.074219 92.773438 65.496094 94.339844 66.367188 Z M 94.339844 66.367188 "/>
<path style=" stroke:none;fill-rule:nonzero;fill:rgb(26.666667%,26.666667%,64.705882%);fill-opacity:1;" d="M 92.664062 76.472656 L 108.113281 85.128906 C 109.679688 86.007812 111.089844 83.585938 109.519531 82.714844 L 94.074219 74.054688 C 92.507812 73.175781 91.097656 75.597656 92.664062 76.472656 Z M 92.664062 76.472656 "/>
<path style=" stroke:none;fill-rule:nonzero;fill:rgb(26.666667%,26.666667%,64.705882%);fill-opacity:1;" d="M 90.789062 84.699219 L 106.214844 93.339844 C 107.785156 94.21875 109.191406 91.796875 107.625 90.925781 L 92.199219 82.28125 C 90.628906 81.402344 89.222656 83.824219 90.789062 84.699219 Z M 90.789062 84.699219 "/>
<path style=" stroke:none;fill-rule:nonzero;fill:rgb(26.666667%,26.666667%,64.705882%);fill-opacity:1;" d="M 88.367188 93.480469 L 103.648438 102.042969 C 105.214844 102.925781 106.625 100.503906 105.058594 99.628906 L 89.773438 91.0625 C 88.207031 90.183594 86.796875 92.605469 88.367188 93.480469 Z M 88.367188 93.480469 "/>
<path style=" stroke:none;fill-rule:nonzero;fill:rgb(26.666667%,26.666667%,64.705882%);fill-opacity:1;" d="M 86.265625 101.546875 L 101.578125 110.125 C 103.144531 111.007812 104.554688 108.585938 102.988281 107.710938 L 87.671875 99.128906 C 86.105469 98.25 84.695312 100.671875 86.265625 101.546875 Z M 86.265625 101.546875 "/>
<path style=" stroke:none;fill-rule:nonzero;fill:rgb(26.666667%,26.666667%,64.705882%);fill-opacity:1;" d="M 83.925781 110.917969 L 100.03125 119.941406 C 101.597656 120.820312 103.007812 118.398438 101.4375 117.523438 L 85.335938 108.503906 C 83.769531 107.625 82.359375 110.042969 83.925781 110.917969 Z M 83.925781 110.917969 "/>
<path style=" stroke:none;fill-rule:nonzero;fill:rgb(100%,89.411765%,12.156863%);fill-opacity:1;" d="M 130.410156 41.828125 C 130.410156 39.070312 125.027344 36.835938 118.386719 36.835938 C 111.746094 36.835938 106.363281 39.070312 106.363281 41.828125 C 106.363281 44.585938 111.746094 46.820312 118.386719 46.820312 C 125.027344 46.820312 130.410156 44.585938 130.410156 41.828125 Z M 130.410156 41.828125 "/>
<path style=" stroke:none;fill-rule:nonzero;fill:rgb(100%,89.411765%,12.156863%);fill-opacity:1;" d="M 128.726562 10.75 L 126.832031 13.835938 C 125.96875 15.242188 128.152344 16.59375 129.015625 15.183594 L 130.90625 12.097656 C 131.773438 10.6875 129.589844 9.339844 128.726562 10.75 Z M 128.726562 10.75 "/>
<path style=" stroke:none;fill-rule:nonzero;fill:rgb(100%,89.411765%,12.156863%);fill-opacity:1;" d="M 136.984375 15.65625 L 131.859375 16.878906 C 130.257812 17.257812 130.835938 19.761719 132.449219 19.378906 L 137.574219 18.152344 C 139.179688 17.773438 138.589844 15.289062 136.984375 15.65625 Z M 136.984375 15.65625 "/>
<path style=" stroke:none;fill-rule:nonzero;fill:rgb(100%,89.411765%,12.156863%);fill-opacity:1;" d="M 134.675781 22.820312 L 131.917969 22.0625 C 131.234375 21.863281 130.519531 22.257812 130.320312 22.941406 C 130.121094 23.628906 130.515625 24.34375 131.199219 24.542969 L 133.957031 25.304688 C 134.40625 25.449219 134.894531 25.339844 135.234375 25.015625 C 135.578125 24.691406 135.710938 24.203125 135.589844 23.746094 C 135.46875 23.292969 135.105469 22.941406 134.648438 22.832031 Z M 134.675781 22.820312 "/>
<path style=" stroke:none;fill-rule:nonzero;fill:rgb(100%,89.411765%,12.156863%);fill-opacity:1;" d="M 104.902344 15.757812 L 108.136719 17.347656 C 109.625 18.070312 110.746094 15.761719 109.261719 15.039062 L 106.019531 13.453125 C 104.550781 12.71875 103.421875 15.027344 104.902344 15.757812 Z M 104.902344 15.757812 "/>
<path style=" stroke:none;fill-rule:nonzero;fill:rgb(100%,89.411765%,12.156863%);fill-opacity:1;" d="M 108.957031 7.027344 L 110.699219 12.03125 C 111.210938 13.574219 113.664062 12.761719 113.125 11.191406 L 111.40625 6.191406 C 110.84375 4.625 108.417969 5.460938 108.957031 7.027344 Z M 108.957031 7.027344 "/>
<path style=" stroke:none;fill-rule:nonzero;fill:rgb(100%,89.411765%,12.156863%);fill-opacity:1;" d="M 116.292969 8.605469 L 115.808594 11.433594 C 115.710938 11.894531 115.871094 12.371094 116.226562 12.679688 C 116.582031 12.988281 117.074219 13.074219 117.515625 12.910156 C 117.953125 12.742188 118.265625 12.347656 118.332031 11.882812 L 118.8125 9.054688 C 118.914062 8.59375 118.753906 8.113281 118.398438 7.808594 C 118.042969 7.5 117.546875 7.414062 117.109375 7.578125 C 116.667969 7.746094 116.355469 8.140625 116.292969 8.605469 Z M 116.292969 8.605469 "/>
<path style=" stroke:none;fill-rule:nonzero;fill:rgb(98.431373%,69.019608%,23.137255%);fill-opacity:1;" d="M 31.730469 93.953125 C 31.160156 93.953125 29.980469 92.507812 29.597656 92.074219 C 28.945312 91.351562 28.402344 90.535156 27.988281 89.648438 C 25.691406 84.65625 28.765625 77.960938 34.496094 77.566406 C 34.902344 77.542969 35.308594 77.542969 35.714844 77.566406 C 39.476562 77.742188 42.34375 81.5 42.691406 85.046875 C 42.839844 86.835938 42.527344 88.636719 41.785156 90.269531 C 41.425781 91.046875 40.945312 91.761719 40.359375 92.382812 C 39.949219 92.816406 38.730469 94.140625 38.097656 94.128906 Z M 31.730469 93.953125 "/>
<path style="fill:none;stroke-width:0.5;stroke-linecap:butt;stroke-linejoin:miter;stroke:rgb(94.901961%,94.901961%,94.901961%);stroke-opacity:1;stroke-miterlimit:10;" d="M 65.457317 182.738608 L 64.001524 163.34161 C 64.001524 163.34161 61.387195 158.577834 59.573171 161.951226 C 57.751524 165.317019 61.570122 167.52036 69.260671 167.193658 C 76.95122 166.859358 78.376524 163.189655 76.699695 161.806869 C 75.022866 160.43168 72.210366 162.346307 72.073171 163.34161 C 71.928354 164.329314 70.327744 182.738608 70.327744 182.738608 " transform="matrix(0.5125,0,0,0.514134,0,0.379902)"/>
<path style=" stroke:none;fill-rule:nonzero;fill:rgb(80%,80%,80%);fill-opacity:1;" d="M 39.757812 92.839844 C 38.390625 93.550781 36.855469 93.882812 35.316406 93.804688 C 33.6875 93.804688 31.820312 93.804688 30.355469 92.984375 C 30.304688 93.0625 30.277344 93.15625 30.273438 93.246094 L 30.273438 94.507812 C 30.273438 94.792969 30.503906 95.023438 30.785156 95.023438 L 39.460938 95.023438 C 39.746094 95.023438 39.976562 94.792969 39.976562 94.507812 L 39.976562 93.246094 C 39.972656 93.085938 39.890625 92.9375 39.757812 92.839844 Z M 39.757812 92.839844 "/>
<path style=" stroke:none;fill-rule:nonzero;fill:rgb(80%,80%,80%);fill-opacity:1;" d="M 30.886719 95.027344 L 39.359375 95.027344 C 39.695312 95.027344 39.96875 95.300781 39.96875 95.636719 L 39.96875 96.707031 C 39.96875 97.046875 39.695312 97.320312 39.359375 97.320312 L 30.886719 97.320312 C 30.550781 97.320312 30.277344 97.046875 30.277344 96.707031 L 30.277344 95.636719 C 30.277344 95.300781 30.550781 95.027344 30.886719 95.027344 Z M 30.886719 95.027344 "/>
<path style=" stroke:none;fill-rule:nonzero;fill:rgb(80%,80%,80%);fill-opacity:1;" d="M 30.796875 97.320312 C 30.796875 97.320312 31.242188 98.980469 35.125 98.917969 C 39.011719 98.855469 39.976562 96.804688 39.976562 96.804688 "/>
<path style=" stroke:none;fill-rule:nonzero;fill:rgb(68.627451%,65.490196%,63.137255%);fill-opacity:1;" d="M 39.554688 94.199219 C 36.816406 95.75 33.519531 95.941406 30.621094 94.714844 C 30.371094 94.605469 30.148438 94.980469 30.402344 95.089844 C 33.433594 96.390625 36.898438 96.199219 39.769531 94.574219 C 40.015625 94.441406 39.800781 94.066406 39.554688 94.199219 Z M 39.554688 94.199219 "/>
<path style=" stroke:none;fill-rule:nonzero;fill:rgb(68.627451%,65.490196%,63.137255%);fill-opacity:1;" d="M 39.171875 96.472656 C 36.597656 97.871094 33.527344 98 30.847656 96.820312 C 30.597656 96.714844 30.375 97.082031 30.628906 97.195312 C 33.441406 98.445312 36.675781 98.316406 39.386719 96.847656 C 39.632812 96.71875 39.410156 96.34375 39.171875 96.472656 Z M 39.171875 96.472656 "/>
<path style=" stroke:none;fill-rule:nonzero;fill:rgb(98.431373%,69.019608%,23.137255%);fill-opacity:1;" d="M 42.925781 75.664062 C 42.332031 75.664062 41.097656 74.152344 40.699219 73.699219 C 40.011719 72.941406 39.445312 72.085938 39.011719 71.160156 C 36.609375 65.941406 39.828125 58.933594 45.824219 58.519531 C 46.246094 58.492188 46.671875 58.492188 47.097656 58.519531 C 51.03125 58.699219 54.03125 62.632812 54.390625 66.34375 C 54.546875 68.214844 54.21875 70.097656 53.445312 71.808594 C 53.070312 72.621094 52.566406 73.367188 51.953125 74.019531 C 51.527344 74.472656 50.246094 75.859375 49.589844 75.84375 Z M 42.925781 75.664062 "/>
<path style="fill:none;stroke-width:0.5;stroke-linecap:butt;stroke-linejoin:miter;stroke:rgb(94.901961%,94.901961%,94.901961%);stroke-opacity:1;stroke-miterlimit:10;" d="M 87.469512 147.188841 L 85.998476 126.902908 C 85.998476 126.902908 83.269817 121.903603 81.356707 125.436547 C 79.45122 128.977088 83.422256 131.271601 91.48628 130.922106 C 99.557927 130.57261 101.028963 126.758551 99.268293 125.29219 C 97.507622 123.818231 94.573171 125.846824 94.420732 126.887713 C 94.268293 127.928601 92.599085 147.181243 92.599085 147.181243 " transform="matrix(0.5125,0,0,0.514134,0,0.379902)"/>
<path style=" stroke:none;fill-rule:nonzero;fill:rgb(80%,80%,80%);fill-opacity:1;" d="M 51.332031 74.496094 C 49.902344 75.246094 48.300781 75.601562 46.6875 75.527344 C 44.988281 75.527344 43.035156 75.527344 41.503906 74.667969 C 41.449219 74.746094 41.417969 74.84375 41.414062 74.941406 L 41.414062 76.261719 C 41.414062 76.542969 41.644531 76.773438 41.925781 76.773438 L 51.015625 76.773438 C 51.296875 76.773438 51.527344 76.542969 51.527344 76.261719 L 51.527344 74.929688 C 51.535156 74.761719 51.464844 74.601562 51.332031 74.496094 Z M 51.332031 74.496094 "/>
<path style=" stroke:none;fill-rule:nonzero;fill:rgb(80%,80%,80%);fill-opacity:1;" d="M 42.019531 76.78125 L 50.9375 76.78125 C 51.273438 76.78125 51.546875 77.054688 51.546875 77.390625 L 51.546875 78.570312 C 51.546875 78.90625 51.273438 79.179688 50.9375 79.179688 L 42.019531 79.179688 C 41.683594 79.179688 41.410156 78.90625 41.410156 78.570312 L 41.410156 77.390625 C 41.410156 77.054688 41.683594 76.78125 42.019531 76.78125 Z M 42.019531 76.78125 "/>
<path style=" stroke:none;fill-rule:nonzero;fill:rgb(80%,80%,80%);fill-opacity:1;" d="M 41.949219 79.179688 C 41.949219 79.179688 42.414062 80.917969 46.480469 80.851562 C 50.542969 80.785156 51.546875 78.640625 51.546875 78.640625 "/>
<path style=" stroke:none;fill-rule:nonzero;fill:rgb(68.627451%,65.490196%,63.137255%);fill-opacity:1;" d="M 51.117188 75.917969 C 48.25 77.53125 44.800781 77.722656 41.773438 76.429688 C 41.507812 76.316406 41.261719 76.707031 41.542969 76.820312 C 44.710938 78.1875 48.332031 78 51.34375 76.308594 C 51.597656 76.167969 51.367188 75.773438 51.117188 75.917969 Z M 51.117188 75.917969 "/>
<path style=" stroke:none;fill-rule:nonzero;fill:rgb(68.627451%,65.490196%,63.137255%);fill-opacity:1;" d="M 50.710938 78.296875 C 48.019531 79.761719 44.804688 79.894531 42 78.660156 C 41.734375 78.550781 41.488281 78.933594 41.769531 79.050781 C 44.714844 80.359375 48.097656 80.226562 50.933594 78.6875 C 51.195312 78.527344 50.96875 78.15625 50.710938 78.296875 Z M 50.710938 78.296875 "/>
<path style=" stroke:none;fill-rule:nonzero;fill:rgb(98.431373%,69.019608%,23.137255%);fill-opacity:1;" d="M 166.097656 97.367188 C 165.527344 97.367188 164.347656 95.921875 163.964844 95.488281 C 163.3125 94.765625 162.769531 93.949219 162.355469 93.0625 C 160.058594 88.070312 163.132812 81.375 168.863281 80.980469 C 169.269531 80.957031 169.675781 80.957031 170.082031 80.980469 C 173.84375 81.15625 176.710938 84.914062 177.058594 88.460938 C 177.207031 90.25 176.894531 92.050781 176.152344 93.683594 C 175.792969 94.460938 175.3125 95.175781 174.726562 95.796875 C 174.316406 96.230469 173.097656 97.554688 172.464844 97.539062 Z M 166.097656 97.367188 "/>
<path style="fill:none;stroke-width:0.5;stroke-linecap:butt;stroke-linejoin:miter;stroke:rgb(94.901961%,94.901961%,94.901961%);stroke-opacity:1;stroke-miterlimit:10;" d="M 327.637195 189.371425 L 326.219512 169.997219 C 326.219512 169.997219 323.612805 165.241042 321.791159 168.606835 C 319.969512 171.980226 323.78811 174.183567 331.478659 173.849267 C 339.169207 173.522565 340.602134 169.852862 338.917683 168.470076 C 337.240854 167.087289 334.428354 169.009515 334.291159 169.997219 C 334.146341 170.992521 332.553354 189.401816 332.553354 189.401816 " transform="matrix(0.5125,0,0,0.514134,0,0.379902)"/>
<path style=" stroke:none;fill-rule:nonzero;fill:rgb(80%,80%,80%);fill-opacity:1;" d="M 174.128906 96.25 C 172.757812 96.960938 171.222656 97.292969 169.683594 97.210938 C 168.054688 97.210938 166.1875 97.210938 164.722656 96.394531 C 164.671875 96.472656 164.644531 96.5625 164.640625 96.65625 L 164.640625 97.917969 C 164.640625 98.199219 164.871094 98.429688 165.152344 98.429688 L 173.8125 98.429688 C 174.097656 98.429688 174.328125 98.199219 174.328125 97.917969 L 174.328125 96.65625 C 174.328125 96.496094 174.253906 96.347656 174.128906 96.25 Z M 174.128906 96.25 "/>
<path style=" stroke:none;fill-rule:nonzero;fill:rgb(80%,80%,80%);fill-opacity:1;" d="M 165.253906 98.433594 L 173.726562 98.433594 C 174.0625 98.433594 174.335938 98.710938 174.335938 99.046875 L 174.335938 100.117188 C 174.335938 100.453125 174.0625 100.730469 173.726562 100.730469 L 165.253906 100.730469 C 164.917969 100.730469 164.644531 100.453125 164.644531 100.117188 L 164.644531 99.046875 C 164.644531 98.710938 164.917969 98.433594 165.253906 98.433594 Z M 165.253906 98.433594 "/>
<path style=" stroke:none;fill-rule:nonzero;fill:rgb(80%,80%,80%);fill-opacity:1;" d="M 165.160156 100.730469 C 165.160156 100.730469 165.605469 102.390625 169.488281 102.328125 C 173.375 102.265625 174.335938 100.214844 174.335938 100.214844 "/>
<path style=" stroke:none;fill-rule:nonzero;fill:rgb(68.627451%,65.490196%,63.137255%);fill-opacity:1;" d="M 173.921875 97.609375 C 171.183594 99.160156 167.886719 99.347656 164.988281 98.121094 C 164.738281 98.015625 164.519531 98.390625 164.769531 98.496094 C 167.800781 99.796875 171.265625 99.609375 174.136719 97.984375 C 174.382812 97.84375 174.164062 97.46875 173.921875 97.609375 Z M 173.921875 97.609375 "/>
<path style=" stroke:none;fill-rule:nonzero;fill:rgb(68.627451%,65.490196%,63.137255%);fill-opacity:1;" d="M 173.53125 99.878906 C 170.960938 101.277344 167.890625 101.40625 165.210938 100.230469 C 164.957031 100.121094 164.738281 100.492188 164.988281 100.605469 C 167.804688 101.855469 171.039062 101.726562 173.746094 100.253906 C 174 100.121094 173.777344 99.746094 173.53125 99.878906 Z M 173.53125 99.878906 "/>
<path style=" stroke:none;fill-rule:nonzero;fill:rgb(98.431373%,69.019608%,23.137255%);fill-opacity:1;" d="M 114.527344 37.398438 C 113.820312 37.398438 112.355469 35.597656 111.878906 35.0625 C 111.066406 34.164062 110.390625 33.144531 109.875 32.046875 C 107.015625 25.835938 110.84375 17.5 117.976562 17.007812 C 118.488281 16.976562 119.003906 16.976562 119.515625 17.007812 C 124.195312 17.222656 127.761719 21.902344 128.191406 26.316406 C 128.375 28.546875 127.988281 30.78125 127.0625 32.816406 C 126.617188 33.78125 126.019531 34.671875 125.289062 35.445312 C 124.777344 35.957031 123.242188 37.632812 122.476562 37.613281 Z M 114.527344 37.398438 "/>
<path style="fill:none;stroke-width:0.5;stroke-linecap:butt;stroke-linejoin:miter;stroke:rgb(94.901961%,94.901961%,94.901961%);stroke-opacity:1;stroke-miterlimit:10;" d="M 227.88872 72.913455 L 226.120427 48.767877 C 226.120427 48.767877 222.881098 42.849247 220.602134 47.043193 C 218.323171 51.229541 223.003049 54.002711 232.660061 53.569641 C 242.317073 53.13657 244.016768 48.570336 241.920732 46.868445 C 239.817073 45.166554 236.32622 47.537045 236.150915 48.783072 C 235.967988 50.021502 234.001524 72.913455 234.001524 72.913455 " transform="matrix(0.5125,0,0,0.514134,0,0.379902)"/>
<path style=" stroke:none;fill-rule:nonzero;fill:rgb(80%,80%,80%);fill-opacity:1;" d="M 124.539062 36.015625 C 122.855469 36.960938 121.039062 37.210938 119.011719 37.210938 C 116.988281 37.210938 114.660156 37.210938 112.863281 36.183594 C 112.800781 36.28125 112.765625 36.394531 112.761719 36.507812 L 112.761719 38.078125 C 112.761719 38.429688 113.046875 38.71875 113.402344 38.71875 L 124.164062 38.71875 C 124.515625 38.71875 124.804688 38.429688 124.804688 38.078125 L 124.804688 36.519531 C 124.800781 36.316406 124.699219 36.128906 124.539062 36.015625 Z M 124.539062 36.015625 "/>
<path style=" stroke:none;fill-rule:nonzero;fill:rgb(80%,80%,80%);fill-opacity:1;" d="M 113.335938 38.730469 L 124.179688 38.730469 C 124.515625 38.730469 124.789062 39.003906 124.789062 39.339844 L 124.789062 40.972656 C 124.789062 41.308594 124.515625 41.582031 124.179688 41.582031 L 113.335938 41.582031 C 112.996094 41.582031 112.722656 41.308594 112.722656 40.972656 L 112.722656 39.339844 C 112.722656 39.003906 112.996094 38.730469 113.335938 38.730469 Z M 113.335938 38.730469 "/>
<path style=" stroke:none;fill-rule:nonzero;fill:rgb(80%,80%,80%);fill-opacity:1;" d="M 113.363281 41.585938 C 113.363281 41.585938 113.917969 43.644531 118.757812 43.578125 C 123.59375 43.511719 124.789062 40.949219 124.789062 40.949219 "/>
<path style=" stroke:none;fill-rule:nonzero;fill:rgb(68.627451%,65.490196%,63.137255%);fill-opacity:1;" d="M 124.269531 37.707031 C 120.863281 39.628906 116.757812 39.859375 113.15625 38.328125 C 112.84375 38.195312 112.566406 38.65625 112.882812 38.796875 C 116.652344 40.417969 120.960938 40.1875 124.539062 38.167969 C 124.84375 38 124.574219 37.535156 124.269531 37.707031 Z M 124.269531 37.707031 "/>
<path style=" stroke:none;fill-rule:nonzero;fill:rgb(68.627451%,65.490196%,63.137255%);fill-opacity:1;" d="M 123.789062 40.535156 C 120.589844 42.273438 116.765625 42.433594 113.429688 40.964844 C 113.117188 40.828125 112.84375 41.292969 113.160156 41.433594 C 116.664062 42.988281 120.691406 42.828125 124.0625 40.996094 C 124.363281 40.835938 124.089844 40.371094 123.789062 40.535156 Z M 123.789062 40.535156 "/>
</g>
</svg>
