<?xml version="1.0" encoding="UTF-8"?>
<svg xmlns="http://www.w3.org/2000/svg" xmlns:xlink="http://www.w3.org/1999/xlink" width="206px" height="155px" viewBox="0 0 205 155" version="1.1">
<defs>
<filter id="alpha" filterUnits="objectBoundingBox" x="0%" y="0%" width="100%" height="100%">
  <feColorMatrix type="matrix" in="SourceGraphic" values="0 0 0 0 1 0 0 0 0 1 0 0 0 0 1 0 0 0 1 0"/>
</filter>
<mask id="mask0">
  <g filter="url(#alpha)">
<rect x="0" y="0" width="205" height="155" style="fill:rgb(0%,0%,0%);fill-opacity:0.631373;stroke:none;"/>
  </g>
</mask>
<linearGradient id="linear0" gradientUnits="userSpaceOnUse" x1="20.68" y1="274.5" x2="41.99" y2="240.09" gradientTransform="matrix(-0.5125,0,0,0.514134,118.02875,0.379902)">
<stop offset="0" style="stop-color:rgb(100%,100%,100%);stop-opacity:0;"/>
<stop offset="0.99" style="stop-color:rgb(45.882353%,29.803922%,14.117647%);stop-opacity:1;"/>
</linearGradient>
<clipPath id="clip1">
  <rect x="0" y="0" width="205" height="155"/>
</clipPath>
<g id="surface5" clip-path="url(#clip1)">
<path style=" stroke:none;fill-rule:nonzero;fill:url(#linear0);" d="M 93.515625 121.84375 L 114.144531 133.355469 L 103.742188 141.539062 L 90.851562 133.699219 C 92.476562 132.652344 91.882812 122.867188 93.515625 121.84375 Z M 93.515625 121.84375 "/>
</g>
<mask id="mask1">
  <g filter="url(#alpha)">
<rect x="0" y="0" width="205" height="155" style="fill:rgb(0%,0%,0%);fill-opacity:0.470588;stroke:none;"/>
  </g>
</mask>
<clipPath id="clip2">
  <rect x="0" y="0" width="205" height="155"/>
</clipPath>
<g id="surface8" clip-path="url(#clip2)">
<path style=" stroke:none;fill-rule:nonzero;fill:rgb(25.882353%,12.941176%,4.313725%);fill-opacity:1;" d="M 50.066406 46.136719 L 65.707031 36.898438 L 65.707031 88.058594 L 50.066406 97.464844 Z M 50.066406 46.136719 "/>
</g>
<mask id="mask2">
  <g filter="url(#alpha)">
<rect x="0" y="0" width="205" height="155" style="fill:rgb(0%,0%,0%);fill-opacity:0.411765;stroke:none;"/>
  </g>
</mask>
<linearGradient id="linear1" gradientUnits="userSpaceOnUse" x1="304.67" y1="206.78" x2="326.24" y2="183.84" gradientTransform="matrix(-0.5125,0,0,0.514134,316.422625,0.379902)">
<stop offset="0" style="stop-color:rgb(100%,45.098039%,30.196078%);stop-opacity:0;"/>
<stop offset="1" style="stop-color:rgb(25.882353%,12.941176%,4.313725%);stop-opacity:1;"/>
</linearGradient>
<clipPath id="clip3">
  <rect x="0" y="0" width="205" height="155"/>
</clipPath>
<g id="surface11" clip-path="url(#clip3)">
<path style=" stroke:none;fill-rule:nonzero;fill:url(#linear1);" d="M 153.277344 90.925781 C 156.667969 92.328125 165.402344 96.71875 170.703125 99.664062 C 168.882812 100.757812 166.984375 101.714844 165.023438 102.539062 C 163.074219 103.441406 161.367188 104.71875 159.53125 105.828125 C 156.613281 107.59375 153.320312 108.785156 150.695312 110.96875 C 146.984375 107.820312 140.816406 103.109375 137.460938 100.445312 C 137.34375 100.445312 136.195312 99.316406 136.285156 98.621094 C 139.972656 96.878906 152.535156 91.511719 153.277344 90.925781 Z M 153.277344 90.925781 "/>
</g>
</defs>
<g id="surface1">
<path style=" stroke:none;fill-rule:nonzero;fill:rgb(91.372549%,60.392157%,32.54902%);fill-opacity:1;" d="M 99.570312 148.296875 L 7.460938 93.683594 C 4.53125 92.035156 2.015625 89.324219 4.875 87.542969 L 97.3125 34.070312 C 98.703125 33.207031 100.808594 32.640625 102.21875 33.464844 L 198.90625 89.78125 C 201.835938 91.488281 202.367188 96.261719 199.417969 97.972656 L 111.726562 148.207031 C 107.972656 150.394531 103.351562 150.429688 99.570312 148.296875 Z M 99.570312 148.296875 "/>
<use xlink:href="#surface5" mask="url(#mask0)"/>
<path style=" stroke:none;fill-rule:nonzero;fill:rgb(40.784314%,88.235294%,99.215686%);fill-opacity:1;" d="M 50.066406 46.136719 L 65.707031 36.898438 L 65.707031 88.058594 L 50.066406 97.464844 Z M 50.066406 46.136719 "/>
<use xlink:href="#surface8" mask="url(#mask1)"/>
<path style=" stroke:none;fill-rule:nonzero;fill:rgb(96.470588%,46.666667%,43.921569%);fill-opacity:1;" d="M 109.894531 30.296875 C 110.601562 29.566406 111.164062 28.707031 111.550781 27.761719 C 111.75 26.945312 112.121094 23.589844 112.574219 23.421875 C 113.863281 22.964844 112.648438 25.597656 113.140625 25.511719 C 113.632812 25.421875 115.703125 23.070312 116.316406 22.910156 C 116.933594 22.75 117.929688 24.308594 117.675781 25.238281 C 117.265625 26.21875 116.703125 27.125 116.003906 27.921875 L 111.023438 32.519531 "/>
<path style=" stroke:none;fill-rule:nonzero;fill:rgb(25.882353%,12.941176%,4.313725%);fill-opacity:1;" d="M 93.941406 87.417969 C 93.808594 88.089844 93.984375 88.785156 94.414062 89.316406 C 95.125 90.085938 97.855469 92.511719 98.113281 93.039062 C 98.371094 93.5625 98.734375 94.996094 98.113281 95.496094 C 97.492188 95.992188 96.285156 96.042969 94.796875 95.496094 C 93.3125 94.945312 89.738281 92.625 89.078125 91.894531 C 88.417969 91.164062 89.078125 83.789062 89.078125 83.789062 C 89.078125 83.789062 92.90625 82.851562 94.203125 83.789062 Z M 93.941406 87.417969 "/>
<path style=" stroke:none;fill-rule:nonzero;fill:rgb(25.882353%,12.941176%,4.313725%);fill-opacity:1;" d="M 83.859375 92.347656 C 83.730469 93.019531 83.902344 93.714844 84.332031 94.246094 C 85.042969 95.015625 87.777344 97.441406 88.03125 97.96875 C 88.289062 98.492188 88.652344 99.925781 88.03125 100.425781 C 87.410156 100.925781 86.203125 100.976562 84.714844 100.425781 C 83.230469 99.875 79.65625 97.554688 78.996094 96.828125 C 78.335938 96.097656 78.996094 88.71875 78.996094 88.71875 C 78.996094 88.71875 82.824219 87.78125 84.121094 88.71875 Z M 83.859375 92.347656 "/>
<path style=" stroke:none;fill-rule:nonzero;fill:rgb(90.196078%,90.196078%,90.196078%);fill-opacity:1;" d="M 94.40625 39.65625 C 94.40625 39.65625 96.359375 48.347656 96.488281 56.476562 C 96.617188 64.605469 95.65625 86.441406 95.65625 86.441406 C 95.65625 86.441406 93.414062 88.605469 88.484375 87.84375 L 88.484375 57.542969 C 88.484375 57.542969 86.761719 58.183594 86.761719 59.46875 C 86.761719 60.753906 85.1875 91.746094 85.1875 91.746094 C 85.1875 91.746094 84.304688 93.386719 77.855469 90.878906 C 77.855469 90.878906 75.648438 49.796875 80.386719 41.835938 "/>
<path style=" stroke:none;fill-rule:nonzero;fill:rgb(25.882353%,12.941176%,4.313725%);fill-opacity:1;" d="M 82.785156 40.765625 C 83.808594 41.210938 86.371094 43.289062 88.375 44.066406 C 90.300781 44.875 92.320312 45.425781 94.386719 45.707031 C 94.621094 45.390625 94.859375 45.0625 95.097656 44.675781 C 101.109375 35.25 104.074219 28.035156 103.882812 26.003906 C 103.695312 23.972656 98.578125 20.015625 95.648438 19.515625 C 92.714844 19.015625 87.402344 20.199219 87.402344 20.199219 C 87.402344 20.199219 84.464844 29.234375 83.539062 36.1875 C 83.261719 38.136719 83.261719 38.136719 82.785156 40.765625 Z M 82.785156 40.765625 "/>
<path style=" stroke:none;fill-rule:nonzero;fill:rgb(25.882353%,12.941176%,4.313725%);fill-opacity:1;" d="M 99.332031 22.425781 C 100.15625 23.054688 101.515625 20.59375 101.238281 20.175781 C 100.960938 19.753906 96.695312 17.710938 95.894531 17.691406 C 94.144531 17.648438 94.582031 20.484375 94.582031 20.484375 "/>
<path style=" stroke:none;fill-rule:nonzero;fill:rgb(12.54902%,3.529412%,1.568627%);fill-opacity:1;" d="M 98.820312 9.21875 C 99.710938 9.460938 100.359375 8.070312 102.160156 8.164062 C 103.964844 8.257812 105.363281 10.015625 105.816406 10.820312 C 106.265625 11.628906 107.214844 10.867188 107.589844 11.96875 C 107.964844 13.070312 106.953125 14.023438 107.183594 14.636719 C 107.195312 14.664062 107.207031 14.691406 107.21875 14.714844 C 107.300781 15.527344 106.953125 16.324219 106.308594 16.820312 C 105.757812 17.113281 105.171875 17.328125 104.566406 17.464844 L 96.007812 17.8125 C 95.453125 16.832031 96.457031 10.550781 96.878906 9.902344 C 97.273438 9.230469 98.09375 8.945312 98.820312 9.21875 Z M 98.820312 9.21875 "/>
<path style=" stroke:none;fill-rule:nonzero;fill:rgb(96.470588%,46.666667%,43.921569%);fill-opacity:1;" d="M 105.371094 14.890625 C 105.523438 15.371094 101.378906 21.535156 99.246094 20.820312 C 97.113281 20.105469 95.996094 16.3125 96.171875 15.414062 C 96.34375 14.511719 98.457031 10.316406 99.460938 10.300781 C 100.464844 10.289062 104.4375 11.953125 105.371094 14.890625 Z M 105.371094 14.890625 "/>
<path style=" stroke:none;fill-rule:nonzero;fill:rgb(12.54902%,3.529412%,1.568627%);fill-opacity:1;" d="M 105.328125 12.523438 C 105.328125 12.523438 105 14.257812 102.453125 13.40625 C 99.90625 12.558594 99.492188 13.027344 98.804688 13.738281 C 97.523438 15.074219 94.960938 16.128906 96.625 11.074219 C 96.707031 10.828125 99.976562 8.375 101.96875 9.015625 C 103.957031 9.660156 105.328125 12.523438 105.328125 12.523438 Z M 105.328125 12.523438 "/>
<path style=" stroke:none;fill-rule:nonzero;fill:rgb(96.470588%,46.666667%,43.921569%);fill-opacity:1;" d="M 98.195312 14.488281 C 98.195312 14.488281 98.050781 12.820312 97.171875 13.167969 C 96.289062 13.511719 96.03125 15.171875 96.613281 16 "/>
<path style=" stroke:none;fill-rule:nonzero;fill:rgb(25.882353%,12.941176%,4.313725%);fill-opacity:1;" d="M 103.878906 26.015625 C 104.09375 28.648438 104.023438 31.296875 103.664062 33.910156 C 103.664062 33.910156 110.378906 27.808594 110.941406 28.203125 C 111.503906 28.601562 112.992188 30.910156 112.75 31.871094 C 112.507812 32.832031 103.730469 42.957031 99.195312 42.101562 C 94.660156 41.25 96.632812 31.160156 96.632812 31.160156 "/>
<path style=" stroke:none;fill-rule:nonzero;fill:rgb(40.784314%,88.235294%,99.215686%);fill-opacity:1;" d="M 122.855469 65.941406 L 122.855469 13.242188 L 59.03125 50.949219 L 59.03125 104.316406 Z M 122.855469 65.941406 "/>
<path style=" stroke:none;fill-rule:nonzero;fill:rgb(100%,62.352941%,62.352941%);fill-opacity:1;" d="M 120.300781 32.265625 L 135.941406 23.027344 L 135.941406 74.1875 L 120.300781 83.59375 Z M 120.300781 32.265625 "/>
<path style=" stroke:none;fill-rule:nonzero;fill:rgb(94.117647%,28.627451%,0%);fill-opacity:1;" d="M 132.738281 50.25 C 132.738281 50.25 128.636719 50.59375 127.761719 50.25 C 126.882812 49.90625 124.171875 48.910156 123.980469 49.707031 C 123.785156 50.503906 125.347656 50.902344 125.347656 50.902344 C 125.347656 50.902344 122.5625 51.601562 121.789062 51.835938 C 121.015625 52.066406 121.453125 52.789062 122.078125 52.683594 C 122.078125 52.683594 120.464844 53.414062 121.015625 53.78125 C 121.375 54 121.804688 54.058594 122.207031 53.953125 C 122.207031 53.953125 121.472656 54.554688 122.308594 54.925781 C 123.085938 54.859375 123.847656 54.683594 124.578125 54.410156 C 124.578125 54.410156 123.640625 55.210938 123.941406 55.4375 C 124.246094 55.664062 124.160156 55.875 126.957031 54.410156 C 126.957031 54.410156 132.800781 53.105469 134.101562 52.867188 "/>
<use xlink:href="#surface11" mask="url(#mask2)"/>
<path style=" stroke:none;fill-rule:nonzero;fill:rgb(40.784314%,88.235294%,99.215686%);fill-opacity:1;" d="M 157.496094 95.945312 L 158.304688 95.433594 L 158.304688 86.285156 L 154.304688 86.144531 C 154.304688 86.144531 154.226562 90.042969 153.277344 90.933594 C 152.332031 91.824219 149.992188 91.1875 149.761719 91.261719 C 149.53125 91.339844 147.957031 90.882812 147.25 91.613281 C 146.542969 92.34375 149.648438 94.449219 151.300781 94.835938 C 152.429688 95.066406 153.589844 95.109375 154.734375 94.964844 C 154.734375 94.964844 155.09375 92.625 155.667969 92.855469 C 156.242188 93.089844 156.28125 95.5625 156.28125 95.5625 Z M 157.496094 95.945312 "/>
<path style=" stroke:none;fill-rule:nonzero;fill:rgb(25.882353%,12.941176%,4.313725%);fill-opacity:1;" d="M 161.4375 60.5625 C 161.382812 54.519531 160.925781 48.933594 156.097656 44.71875 L 155.800781 45.824219 C 155.800781 45.78125 155.800781 45.742188 155.800781 45.699219 C 155.753906 45.1875 154.878906 44.949219 154.773438 45.5625 C 154.777344 45.609375 154.777344 45.65625 154.773438 45.699219 L 154.773438 45.730469 C 154.773438 45.933594 154.730469 46.136719 154.71875 46.339844 C 154.617188 46.226562 154.472656 46.167969 154.324219 46.171875 C 154.171875 46.175781 154.03125 46.246094 153.941406 46.363281 C 152.996094 46.667969 152.617188 48.035156 152.613281 48.886719 C 152.613281 49.171875 152.839844 49.402344 153.125 49.402344 C 153.40625 49.402344 153.636719 49.171875 153.636719 48.886719 C 153.605469 48.5 153.695312 48.109375 153.898438 47.777344 L 153.992188 47.515625 L 153.992188 47.609375 C 153.953125 47.863281 153.964844 48.125 154.027344 48.375 C 154.066406 48.503906 154.15625 48.613281 154.277344 48.675781 C 154.324219 48.871094 154.375 49.070312 154.425781 49.265625 L 153.042969 49.660156 L 151.066406 62.429688 C 151.066406 62.429688 151.332031 90.253906 152.171875 90.496094 C 157.957031 92.183594 160.339844 89.386719 160.339844 89.386719 C 160.71875 79.824219 161.515625 70.152344 161.4375 60.5625 Z M 161.4375 60.5625 "/>
<path style=" stroke:none;fill-rule:nonzero;fill:rgb(40.784314%,88.235294%,99.215686%);fill-opacity:1;" d="M 146.527344 103 L 147.339844 102.488281 L 147.339844 93.339844 L 143.335938 93.195312 C 143.335938 93.195312 143.257812 97.097656 142.3125 97.988281 C 141.363281 98.878906 139.027344 98.238281 138.796875 98.316406 C 138.566406 98.394531 136.992188 97.9375 136.285156 98.667969 C 135.578125 99.398438 138.683594 101.503906 140.332031 101.890625 C 141.460938 102.121094 142.621094 102.164062 143.765625 102.019531 C 143.765625 102.019531 144.125 99.679688 144.699219 99.910156 C 145.273438 100.140625 145.3125 102.617188 145.3125 102.617188 Z M 146.527344 103 "/>
<path style=" stroke:none;fill-rule:nonzero;fill:rgb(25.882353%,12.941176%,4.313725%);fill-opacity:1;" d="M 147.96875 48.851562 C 147.96875 48.851562 144.277344 62.519531 142.777344 74.75 C 142.417969 77.683594 139.390625 95.195312 139.390625 95.195312 C 139.390625 95.195312 144.382812 97.027344 148.820312 95.59375 C 148.820312 95.59375 154.097656 73.25 154.324219 72.8125 C 154.550781 72.375 158.113281 57.902344 158.519531 47.515625 "/>
<path style=" stroke:none;fill-rule:nonzero;fill:rgb(40.784314%,88.235294%,99.215686%);fill-opacity:1;" d="M 147.535156 30.667969 L 145.3125 31.046875 C 144.867188 31.355469 141.527344 35.160156 141.261719 38.996094 C 141.5 40.011719 141.8125 41.007812 142.199219 41.976562 C 142.648438 43.300781 143.136719 44.617188 143.695312 45.894531 C 144.285156 47.300781 144.976562 48.65625 145.769531 49.957031 C 146.113281 50.507812 146.28125 50.785156 146.683594 51.308594 C 147.003906 51.394531 147.339844 51.421875 147.671875 51.390625 C 154.46875 50.539062 157.117188 45.15625 157.0625 44.59375 C 157.003906 44.035156 153.984375 37.1875 152.144531 33.125 C 151.34375 31.347656 149.449219 30.339844 147.535156 30.667969 Z M 147.535156 30.667969 "/>
<path style=" stroke:none;fill-rule:nonzero;fill:rgb(94.117647%,28.627451%,0%);fill-opacity:1;" d="M 139.003906 26.289062 C 139.003906 26.289062 140.9375 33.484375 143.703125 33.023438 C 146.472656 32.558594 147.964844 28.394531 147.503906 26.929688 C 147.042969 25.464844 141.316406 22.421875 139.003906 26.289062 Z M 139.003906 26.289062 "/>
<path style=" stroke:none;fill-rule:nonzero;fill:rgb(98.823529%,61.176471%,32.941176%);fill-opacity:1;" d="M 149.136719 17.859375 C 147.769531 16.9375 145.933594 17.15625 144.816406 18.375 C 143.792969 19.519531 143.679688 21.042969 144.019531 22.460938 C 142.3125 22.132812 140.34375 22.625 138.59375 24.519531 C 138.59375 24.519531 137.027344 26.648438 138.191406 27.757812 C 139.355469 28.867188 140.941406 27.941406 142.417969 27.40625 C 143.894531 26.875 143.511719 28.6875 144.34375 29.980469 C 145.179688 31.269531 145.882812 31.125 146.519531 30.914062 C 147.152344 30.703125 149.332031 28.683594 147.949219 25.5 C 147.863281 25.308594 147.765625 25.121094 147.65625 24.941406 C 148.023438 24.773438 148.375 24.578125 148.710938 24.359375 C 149.511719 23.921875 150.15625 23.253906 150.566406 22.441406 C 151.195312 20.765625 150.605469 18.875 149.136719 17.859375 Z M 149.136719 17.859375 "/>
<path style=" stroke:none;fill-rule:nonzero;fill:rgb(39.607843%,19.607843%,0%);fill-opacity:1;" d="M 156.96875 57.570312 C 156.640625 64.105469 154.71875 70.367188 153.089844 76.660156 C 151.460938 82.953125 150.070312 89.222656 148.882812 95.570312 L 149.433594 95.417969 C 150.640625 89.003906 152.066406 82.636719 153.710938 76.316406 C 155.324219 70.148438 157.15625 63.976562 157.480469 57.570312 C 157.5 57.242188 156.988281 57.242188 156.96875 57.570312 Z M 156.96875 57.570312 "/>
<path style=" stroke:none;fill-rule:nonzero;fill:rgb(40.784314%,88.235294%,99.215686%);fill-opacity:1;" d="M 141.261719 38.996094 C 141.261719 38.996094 139.347656 44.867188 137.738281 46.414062 C 136.613281 47.5 131.726562 49.171875 128.902344 50.074219 C 129.015625 51.894531 129.664062 53.632812 130.769531 55.078125 C 134.914062 54.117188 141.644531 51.695312 143.296875 49.730469 C 145.714844 46.859375 146.816406 42.65625 146.816406 42.65625 Z M 141.261719 38.996094 "/>
<path style=" stroke:none;fill-rule:nonzero;fill:rgb(96.470588%,46.666667%,43.921569%);fill-opacity:1;" d="M 83.785156 38.519531 L 85.546875 40.246094 C 85.546875 40.246094 87.113281 41.691406 86.988281 42.261719 C 86.859375 42.832031 84.894531 41.335938 84.460938 41.070312 C 84.023438 40.800781 85.382812 44.390625 85.183594 44.789062 C 84.984375 45.191406 84.550781 45.058594 84.320312 44.789062 C 84.089844 44.523438 84.398438 45.671875 83.742188 45.574219 C 83.085938 45.472656 82.953125 44.707031 82.953125 44.707031 C 82.953125 44.707031 82.511719 45.503906 82 45.109375 C 81.488281 44.714844 80.273438 40.566406 80.527344 39.417969 C 80.785156 38.273438 82.882812 37.632812 83.785156 38.519531 Z M 83.785156 38.519531 "/>
<path style=" stroke:none;fill-rule:nonzero;fill:rgb(96.470588%,46.666667%,43.921569%);fill-opacity:1;" d="M 80.378906 39.679688 C 80.378906 39.679688 79.894531 43.277344 80.5 43.496094 C 81.101562 43.710938 81.871094 42.46875 81.871094 42.46875 C 81.871094 42.46875 81.390625 39.382812 81.082031 38.984375 C 80.773438 38.589844 80.378906 39.679688 80.378906 39.679688 Z M 80.378906 39.679688 "/>
<path style=" stroke:none;fill-rule:nonzero;fill:rgb(25.882353%,12.941176%,4.313725%);fill-opacity:1;" d="M 87.402344 20.210938 C 87.402344 20.210938 77.449219 24.894531 75.492188 27.316406 C 73.535156 29.738281 79.160156 40.480469 79.160156 40.480469 L 83.925781 38.59375 C 83.925781 38.59375 80.796875 30.535156 82 30.097656 C 83.203125 29.660156 89.445312 27.628906 89.445312 27.628906 "/>
<path style=" stroke:none;fill-rule:nonzero;fill:rgb(100%,100%,100%);fill-opacity:1;" d="M 72.628906 51.4375 C 69.125 50.917969 65.484375 55.988281 64.492188 62.757812 C 63.503906 69.523438 65.539062 75.429688 69.042969 75.945312 C 72.546875 76.460938 76.191406 71.390625 77.179688 64.625 C 78.171875 57.855469 76.132812 51.953125 72.628906 51.4375 Z M 72.628906 51.4375 "/>
<path style=" stroke:none;fill-rule:nonzero;fill:rgb(100%,78.823529%,70.980392%);fill-opacity:1;" d="M 83.59375 62.039062 C 83.59375 62.039062 79.304688 61.578125 78.808594 61.269531 C 78.308594 60.960938 76.972656 55.613281 76.527344 55.679688 C 76.082031 55.746094 75.609375 57.222656 75.609375 57.777344 C 75.609375 58.332031 76.316406 60.707031 76.007812 60.671875 C 75.703125 60.636719 74.984375 59.4375 74.515625 59.699219 C 74.050781 59.960938 75.628906 62.84375 76.265625 63.058594 C 76.863281 63.230469 77.472656 63.371094 78.089844 63.472656 L 83.726562 65.804688 "/>
<path style=" stroke:none;fill-rule:nonzero;fill:rgb(40.784314%,54.901961%,1.176471%);fill-opacity:1;" d="M 99.359375 59.820312 C 99.359375 59.820312 91.597656 62.550781 89.871094 62.59375 C 88.144531 62.640625 80.804688 61.515625 80.804688 61.515625 C 80.804688 61.515625 79.375 64.085938 80.292969 65.15625 C 80.292969 65.15625 87.492188 67.535156 90.03125 67.664062 C 92.566406 67.792969 100.402344 66.785156 101.429688 65.757812 C 102.453125 64.730469 99.359375 59.820312 99.359375 59.820312 Z M 99.359375 59.820312 "/>
<path style=" stroke:none;fill-rule:nonzero;fill:rgb(17.254902%,11.372549%,10.196078%);fill-opacity:1;" d="M 93.125 124.285156 C 93.125 124.285156 91.296875 122.742188 89.246094 123.324219 C 87.195312 123.90625 87.621094 125.46875 88.914062 126.433594 C 90.207031 127.402344 95.179688 130.757812 96.714844 130.726562 C 98.246094 130.699219 98.578125 129.457031 98.609375 128.613281 C 98.523438 127.308594 98.375 126.007812 98.160156 124.71875 "/>
<path style=" stroke:none;fill-rule:nonzero;fill:rgb(17.254902%,11.372549%,10.196078%);fill-opacity:1;" d="M 94.265625 124.179688 C 94.25 124.292969 94.183594 124.398438 94.082031 124.460938 C 93.984375 124.519531 93.863281 124.535156 93.75 124.496094 C 93.195312 124.320312 92.648438 124.109375 92.117188 123.871094 C 92.117188 123.871094 90.347656 123.871094 91.425781 125.644531 C 92.5 127.417969 96.203125 127.9375 97.34375 127.273438 C 98.488281 126.609375 97.722656 124.738281 97.722656 124.738281 "/>
<path style=" stroke:none;fill-rule:nonzero;fill:rgb(17.254902%,11.372549%,10.196078%);fill-opacity:1;" d="M 88.828125 127.742188 C 88.828125 127.742188 86.996094 126.199219 84.945312 126.78125 C 82.898438 127.359375 83.320312 128.921875 84.613281 129.890625 C 85.90625 130.855469 90.882812 134.214844 92.414062 134.183594 C 93.945312 134.152344 94.28125 132.914062 94.308594 132.070312 C 94.226562 130.765625 94.074219 129.464844 93.859375 128.171875 "/>
<path style=" stroke:none;fill-rule:nonzero;fill:rgb(100%,78.823529%,70.980392%);fill-opacity:1;" d="M 89.964844 127.632812 C 89.949219 127.75 89.882812 127.851562 89.785156 127.914062 C 89.683594 127.976562 89.5625 127.988281 89.453125 127.953125 C 88.894531 127.773438 88.347656 127.566406 87.816406 127.324219 C 87.816406 127.324219 86.046875 127.324219 87.125 129.097656 C 88.203125 130.871094 91.902344 131.390625 93.042969 130.726562 C 94.1875 130.066406 93.421875 128.195312 93.421875 128.195312 "/>
<path style=" stroke:none;fill-rule:nonzero;fill:rgb(75.686275%,23.921569%,23.921569%);fill-opacity:1;" d="M 88.046875 79.449219 C 87.453125 80.800781 87.128906 100.152344 87.355469 105.128906 C 87.582031 110.105469 89.964844 127.632812 89.964844 127.632812 C 89.964844 127.632812 91.324219 129.691406 93.601562 129.550781 C 95.882812 129.410156 95.441406 127.5625 95.441406 127.5625 C 95.441406 127.5625 98.359375 128.917969 99.636719 125.9375 C 100.105469 124.832031 102.324219 93.984375 102.324219 90.460938 C 102.25 86.265625 101.097656 82.15625 98.984375 78.535156 "/>
<path style=" stroke:none;fill-rule:nonzero;fill:rgb(42.745098%,34.509804%,32.941176%);fill-opacity:1;" d="M 95.4375 127.554688 C 95.4375 127.554688 96.820312 88.445312 96.648438 87.300781 C 96.472656 86.152344 97.027344 95.875 96.992188 98.535156 C 96.964844 100.429688 95.835938 124.894531 95.4375 127.554688 Z M 95.4375 127.554688 "/>
<path style=" stroke:none;fill-rule:nonzero;fill:rgb(54.901961%,80%,0%);fill-opacity:1;" d="M 88.046875 79.449219 C 88.046875 79.449219 86.027344 65.601562 88.898438 62.996094 C 91.769531 60.390625 99.734375 58.527344 101.199219 59.828125 C 102.664062 61.128906 100.457031 75.820312 98.96875 78.542969 C 97.484375 81.269531 89.109375 80.511719 88.046875 79.449219 Z M 88.046875 79.449219 "/>
<path style=" stroke:none;fill-rule:nonzero;fill:rgb(100%,78.823529%,70.980392%);fill-opacity:1;" d="M 91.675781 52.820312 C 91.609375 53.015625 90.195312 58.429688 92.660156 59.191406 C 95.125 59.953125 95.621094 57.015625 95.867188 56.851562 C 96.113281 56.6875 96.894531 56.421875 96.847656 55.824219 C 96.800781 55.226562 95.867188 55.21875 95.867188 55.21875 C 95.867188 55.21875 95.507812 53.675781 94.398438 53 C 93.285156 52.328125 91.675781 52.820312 91.675781 52.820312 Z M 91.675781 52.820312 "/>
<path style=" stroke:none;fill-rule:nonzero;fill:rgb(17.254902%,11.372549%,10.196078%);fill-opacity:1;" d="M 93.976562 54.324219 C 93.976562 54.324219 91.925781 54.359375 91.03125 53.46875 C 90.6875 53.121094 90.507812 52.640625 90.535156 52.152344 C 90.5625 51.664062 90.792969 51.207031 91.171875 50.898438 C 91.171875 50.898438 90.359375 49.265625 91.890625 48.84375 C 91.890625 48.84375 92.035156 47.339844 95.09375 48.03125 C 98.152344 48.71875 100.953125 50.886719 100.992188 53.683594 C 101.035156 56.480469 101.238281 56.816406 102.234375 57.464844 C 103.226562 58.113281 102.949219 60.550781 100.300781 60.667969 C 97.652344 60.785156 94.039062 60.535156 93.699219 59.222656 C 93.363281 57.910156 95.371094 57.765625 95.621094 56.457031 C 95.75 55.414062 95.015625 54.460938 93.976562 54.324219 Z M 93.976562 54.324219 "/>
<path style=" stroke:none;fill-rule:nonzero;fill:rgb(100%,78.823529%,70.980392%);fill-opacity:1;" d="M 76.515625 70.347656 C 76.515625 70.347656 73.820312 70.496094 73.289062 70.28125 C 72.4375 69.988281 71.570312 69.761719 70.683594 69.609375 C 70.558594 69.578125 70.433594 69.558594 70.304688 69.542969 C 70.042969 69.511719 69.527344 69.402344 69.378906 69.714844 C 69.054688 70.378906 70.53125 70.625 71.058594 70.703125 C 71.058594 70.703125 71.058594 70.703125 71.058594 70.734375 C 70.859375 70.925781 67.921875 71.386719 67.46875 71.457031 C 67.019531 71.53125 66.773438 72.914062 66.773438 72.914062 C 67.351562 74.015625 69.152344 74.085938 70.324219 74.097656 C 71.5 74.105469 73.082031 73.066406 73.46875 73.066406 C 73.851562 73.066406 76.773438 73.632812 77.253906 73.386719 C 77.734375 73.140625 76.515625 70.347656 76.515625 70.347656 Z M 76.515625 70.347656 "/>
<path style=" stroke:none;fill-rule:nonzero;fill:rgb(54.901961%,80%,0%);fill-opacity:1;" d="M 89.132812 63.0625 C 87.867188 63.578125 86.964844 64.5625 85.878906 65.332031 C 85.09375 65.886719 84.277344 66.464844 83.464844 67.011719 C 82.691406 67.609375 81.824219 68.074219 80.902344 68.394531 C 79.441406 68.796875 77.9375 68.910156 76.449219 69.175781 C 76.085938 69.199219 75.734375 69.308594 75.425781 69.496094 C 74.773438 70.054688 73.886719 72.578125 76.238281 74.410156 C 78.167969 74.570312 80.105469 74.578125 82.035156 74.4375 C 84.597656 74.179688 90.339844 70.445312 91.773438 68.730469 C 92.738281 67.5625 93.3125 65.777344 92.726562 64.308594 C 92.300781 63.335938 91.316406 62.738281 90.261719 62.816406 C 89.875 62.832031 89.492188 62.917969 89.132812 63.0625 Z M 89.132812 63.0625 "/>
</g>
</svg>
